<svg xmlns="http://www.w3.org/2000/svg" xmlns:xlink="http://www.w3.org/1999/xlink" width="501" zoomAndPan="magnify" viewBox="0 0 375.75 391.499984" height="522" preserveAspectRatio="xMidYMid meet" version="1.0"><defs><clipPath id="477462d630"><path d="M 37 64 L 338 64 L 338 326 L 37 326 Z M 37 64 " clip-rule="nonzero"/></clipPath><clipPath id="9ca931e1b2"><path d="M 150.828125 0 L 375.171875 129.527344 L 224.398438 390.675781 L 0.0546875 261.152344 Z M 150.828125 0 " clip-rule="nonzero"/></clipPath><clipPath id="a6d3a92cbb"><path d="M 263 64.765625 L 337.492188 194.789062 L 262.132812 325.316406 L 112.28125 325.820312 L 37.789062 195.792969 L 113.148438 65.265625 Z M 263 64.765625 " clip-rule="nonzero"/></clipPath><clipPath id="14867de20d"><path d="M 37 64 L 338 64 L 338 326 L 37 326 Z M 37 64 " clip-rule="nonzero"/></clipPath><clipPath id="9c72ef9f67"><path d="M 150.828125 0 L 375.792969 129.886719 L 225.308594 390.535156 L 0.34375 260.652344 Z M 150.828125 0 " clip-rule="nonzero"/></clipPath><clipPath id="f7f273c3b0"><path d="M 150.832031 0.00390625 L 375.160156 129.519531 L 224.449219 390.554688 L 0.121094 261.039062 Z M 150.832031 0.00390625 " clip-rule="nonzero"/></clipPath><clipPath id="d87fe1beee"><path d="M 262.996094 64.761719 L 337.484375 194.777344 L 262.128906 325.296875 L 112.285156 325.796875 L 37.800781 195.78125 L 113.15625 65.261719 Z M 262.996094 64.761719 " clip-rule="nonzero"/></clipPath><clipPath id="dff66b5b1e"><path d="M 53 78 L 322 78 L 322 313 L 53 313 Z M 53 78 " clip-rule="nonzero"/></clipPath><clipPath id="c98b75ba57"><path d="M 154.710938 20.574219 L 355.421875 136.457031 L 220.527344 370.097656 L 19.816406 254.214844 Z M 154.710938 20.574219 " clip-rule="nonzero"/></clipPath><clipPath id="41ccb96a84"><path d="M 255.066406 78.515625 L 321.710938 194.84375 L 254.289062 311.625 L 120.222656 312.070312 L 53.578125 195.742188 L 121 78.964844 Z M 255.066406 78.515625 " clip-rule="nonzero"/></clipPath><clipPath id="04578d993a"><path d="M 53 78 L 322 78 L 322 313 L 53 313 Z M 53 78 " clip-rule="nonzero"/></clipPath><clipPath id="d785930bec"><path d="M 154.710938 20.574219 L 354.851562 136.125 L 219.59375 370.398438 L 19.449219 254.847656 Z M 154.710938 20.574219 " clip-rule="nonzero"/></clipPath><clipPath id="fba37c4bf0"><path d="M 154.707031 20.578125 L 355.40625 136.453125 L 220.570312 369.992188 L 19.871094 254.117188 Z M 154.707031 20.578125 " clip-rule="nonzero"/></clipPath><clipPath id="bf7b63a0e9"><path d="M 255.058594 78.515625 L 321.699219 194.835938 L 254.28125 311.605469 L 120.222656 312.054688 L 53.582031 195.734375 L 121 78.960938 Z M 255.058594 78.515625 " clip-rule="nonzero"/></clipPath><clipPath id="7ed922e7d5"><path d="M 61.800781 48.851562 L 313.492188 48.851562 L 313.492188 341.835938 L 61.800781 341.835938 Z M 61.800781 48.851562 " clip-rule="nonzero"/></clipPath><clipPath id="1f6765f555"><path d="M 187.648438 48.851562 L 313.492188 122.070312 L 313.492188 268.511719 L 187.648438 341.730469 L 61.800781 268.511719 L 61.800781 122.070312 Z M 187.648438 48.851562 " clip-rule="nonzero"/></clipPath><clipPath id="0c84b27114"><path d="M 61.804688 48.851562 L 312.609375 48.851562 L 312.609375 340.863281 L 61.804688 340.863281 Z M 61.804688 48.851562 " clip-rule="nonzero"/></clipPath><clipPath id="3a9fdb5082"><path d="M 187.640625 48.851562 L 313.476562 122.0625 L 313.476562 268.492188 L 187.640625 341.703125 L 61.804688 268.492188 L 61.804688 122.0625 Z M 187.640625 48.851562 " clip-rule="nonzero"/></clipPath><clipPath id="95ef62b4ed"><path d="M 74.792969 63.96875 L 300.5 63.96875 L 300.5 326.707031 L 74.792969 326.707031 Z M 74.792969 63.96875 " clip-rule="nonzero"/></clipPath><clipPath id="7ef6b69d66"><path d="M 187.648438 63.96875 L 300.5 129.628906 L 300.5 260.949219 L 187.648438 326.613281 L 74.792969 260.949219 L 74.792969 129.628906 Z M 187.648438 63.96875 " clip-rule="nonzero"/></clipPath><clipPath id="004c88f98c"><path d="M 82.023438 73.5 L 293.25 73.5 L 293.25 317.0625 L 82.023438 317.0625 Z M 82.023438 73.5 " clip-rule="nonzero"/></clipPath></defs><g clip-path="url(#477462d630)"><g clip-path="url(#9ca931e1b2)"><g clip-path="url(#a6d3a92cbb)"><path fill="#d9d9d9" d="M 150.828125 0 L 375.171875 129.527344 L 224.398438 390.675781 L 0.0546875 261.152344 Z M 150.828125 0 " fill-opacity="1" fill-rule="nonzero"/></g></g></g><g clip-path="url(#14867de20d)"><g clip-path="url(#9c72ef9f67)"><g clip-path="url(#f7f273c3b0)"><g clip-path="url(#d87fe1beee)"><path stroke-linecap="butt" transform="matrix(1.551483, 0.895749, -0.895749, 1.551483, 150.832149, 0.00309274)" fill="none" stroke-linejoin="miter" d="M 72.294856 0.000359713 L 144.589944 42.061622 L 144.589952 126.187257 L 72.293781 168.249742 L 0.000580528 126.187389 L 0.00057298 42.061754 Z M 72.294856 0.000359713 " stroke="#151f28" stroke-width="3.344879" stroke-opacity="1" stroke-miterlimit="4"/></g></g></g></g><g clip-path="url(#dff66b5b1e)"><g clip-path="url(#c98b75ba57)"><g clip-path="url(#41ccb96a84)"><path fill="#d9d9d9" d="M 154.710938 20.574219 L 355.421875 136.457031 L 220.527344 370.097656 L 19.816406 254.214844 Z M 154.710938 20.574219 " fill-opacity="1" fill-rule="nonzero"/></g></g></g><g clip-path="url(#04578d993a)"><g clip-path="url(#d785930bec)"><g clip-path="url(#fba37c4bf0)"><g clip-path="url(#bf7b63a0e9)"><path stroke-linecap="butt" transform="matrix(1.551483, 0.895749, -0.895749, 1.551483, 154.707248, 20.577721)" fill="none" stroke-linejoin="miter" d="M 64.680906 0.0000148505 L 129.360061 37.631095 L 129.359553 112.894536 L 64.679889 150.526897 L 0.000734264 112.895816 L 0.000152573 37.630487 Z M 64.680906 0.0000148505 " stroke="#151f28" stroke-width="3.344879" stroke-opacity="1" stroke-miterlimit="4"/></g></g></g></g><g clip-path="url(#7ed922e7d5)"><g clip-path="url(#1f6765f555)"><path fill="#d9d9d9" d="M 61.800781 48.851562 L 313.492188 48.851562 L 313.492188 341.835938 L 61.800781 341.835938 Z M 61.800781 48.851562 " fill-opacity="1" fill-rule="nonzero"/></g></g><g clip-path="url(#0c84b27114)"><g clip-path="url(#3a9fdb5082)"><path stroke-linecap="butt" transform="matrix(1.791499, 0, 0, 1.791499, 61.803764, 48.850783)" fill="none" stroke-linejoin="miter" d="M 70.241114 0.000435292 L 140.481713 40.866186 L 140.481713 122.602049 L 70.241114 163.4678 L 0.000515267 122.602049 L 0.000515267 40.866186 Z M 70.241114 0.000435292 " stroke="#151f28" stroke-width="3.344879" stroke-opacity="1" stroke-miterlimit="4"/></g></g><g clip-path="url(#95ef62b4ed)"><g clip-path="url(#7ef6b69d66)"><path fill="#000000" d="M 74.792969 63.96875 L 300.5 63.96875 L 300.5 326.707031 L 74.792969 326.707031 Z M 74.792969 63.96875 " fill-opacity="1" fill-rule="nonzero"/></g></g><g clip-path="url(#004c88f98c)"><path fill="#c49a29" d="M 189.894531 317.03125 C 190.335938 317.015625 190.847656 316.855469 191.125 316.464844 L 253.703125 241.585938 C 254.746094 240.28125 254.816406 239.992188 253.421875 239.976562 L 128.070312 240.308594 C 126.347656 240.449219 126.339844 240.363281 127.457031 241.820312 L 188.949219 316.699219 C 189.078125 316.898438 189.453125 317.042969 189.894531 317.03125 Z M 177.878906 310.359375 L 121.449219 241.726562 C 120.695312 240.808594 120.507812 240.757812 119.179688 241.394531 L 89.425781 255.019531 C 87.476562 255.898438 87.746094 256.078125 89.046875 256.957031 L 177.882812 310.363281 Z M 204.226562 307.855469 C 204.253906 307.910156 204.710938 307.566406 205.742188 306.859375 L 287.664062 252.9375 L 262.027344 241.300781 C 260.691406 240.859375 260.289062 240.835938 259.425781 241.917969 L 205.359375 306.484375 C 204.597656 307.363281 204.199219 307.796875 204.226562 307.855469 Z M 178.304688 280.515625 C 174.683594 280.515625 171.785156 279.265625 169.648438 276.777344 C 167.515625 274.300781 166.308594 270.765625 166.007812 266.179688 C 165.703125 261.613281 166.472656 258.074219 168.277344 255.585938 C 170.085938 253.109375 172.792969 251.898438 176.414062 251.898438 C 180.046875 251.898438 182.933594 253.109375 185.070312 255.585938 C 187.203125 258.074219 188.410156 261.613281 188.710938 266.179688 C 189.015625 270.765625 188.25 274.300781 186.441406 276.777344 C 184.636719 279.265625 181.9375 280.515625 178.304688 280.515625 Z M 202.097656 280.230469 C 198.796875 280.230469 196.320312 279.507812 194.71875 278.054688 C 193.105469 276.601562 192.527344 274.597656 192.921875 272 C 193.148438 270.496094 193.746094 269.09375 194.71875 267.789062 C 195.691406 266.496094 197.578125 264.71875 200.394531 262.539062 L 207.066406 257.382812 L 194.957031 257.382812 L 195.710938 252.179688 L 215.769531 252.179688 L 214.964844 257.382812 L 203.5625 266.277344 C 202.542969 267.089844 201.75 267.867188 201.199219 268.640625 C 200.648438 269.417969 200.332031 270.261719 200.207031 271.101562 C 200.007812 272.394531 200.253906 273.433594 201.011719 274.222656 C 201.753906 275.011719 202.878906 275.40625 204.320312 275.40625 C 205.429688 275.40625 206.667969 275.128906 208.058594 274.648438 C 209.445312 274.179688 210.953125 273.503906 212.597656 272.566406 L 211.699219 278.621094 C 210.019531 279.152344 208.386719 279.535156 206.78125 279.804688 C 205.171875 280.089844 203.601562 280.230469 202.097656 280.230469 Z M 177.972656 275.640625 C 179.5 275.640625 180.535156 274.929688 181.097656 273.511719 C 181.65625 272.109375 181.84375 269.679688 181.617188 266.230469 C 181.386719 262.742188 180.898438 260.324219 180.148438 258.898438 C 179.402344 257.46875 178.273438 256.722656 176.746094 256.722656 C 175.230469 256.722656 174.179688 257.46875 173.621094 258.898438 C 173.0625 260.324219 172.871094 262.742188 173.101562 266.230469 C 173.332031 269.679688 173.824219 272.109375 174.570312 273.511719 C 175.300781 274.929688 176.445312 275.640625 177.972656 275.640625 Z M 245.996094 271.8125 C 245.339844 271.8125 244.878906 271.644531 244.667969 271.289062 C 244.257812 270.582031 244.777344 269.199219 246.183594 267.082031 C 247.59375 264.953125 249.210938 263.144531 251.054688 261.6875 C 252.90625 260.234375 254.949219 259.144531 257.15625 258.425781 C 258.589844 257.957031 259.574219 257.835938 260.136719 258.09375 C 260.703125 258.355469 260.835938 259.011719 260.515625 259.984375 C 261.582031 258.859375 262.695312 257.878906 263.875 257.101562 C 265.054688 256.320312 266.253906 255.714844 267.515625 255.300781 C 269.394531 254.691406 270.527344 254.734375 270.828125 255.445312 C 271.128906 256.15625 270.589844 257.515625 269.265625 259.511719 C 267.953125 261.492188 266.488281 263.175781 264.820312 264.527344 C 263.164062 265.875 261.363281 266.84375 259.476562 267.460938 C 258.210938 267.871094 257.332031 267.980469 256.824219 267.742188 C 256.316406 267.515625 256.195312 266.949219 256.449219 266.085938 C 255.292969 267.335938 254.074219 268.386719 252.757812 269.257812 C 251.445312 270.132812 250.074219 270.824219 248.644531 271.289062 C 247.539062 271.652344 246.648438 271.808594 245.996094 271.8125 Z M 119.746094 270.675781 C 118.621094 269.734375 117.578125 268.757812 116.625 267.835938 C 115.660156 266.914062 114.789062 266.027344 114.023438 265.140625 C 112.339844 263.195312 111.449219 261.679688 111.375 260.601562 C 111.292969 259.511719 112.023438 258.953125 113.550781 258.945312 C 114.429688 258.945312 115.460938 259.203125 116.625 259.652344 C 117.777344 260.105469 119.613281 261.035156 122.15625 262.492188 L 128.210938 265.945312 L 122.015625 258.800781 L 125.089844 258.753906 L 135.308594 270.582031 L 132.234375 270.628906 L 121.875 264.714844 C 120.9375 264.1875 120.136719 263.785156 119.460938 263.53125 C 118.785156 263.28125 118.203125 263.152344 117.710938 263.152344 C 116.953125 263.152344 116.59375 263.441406 116.578125 263.957031 C 116.550781 264.46875 116.882812 265.140625 117.617188 265.992188 C 118.179688 266.644531 118.933594 267.394531 119.886719 268.167969 C 120.832031 268.945312 121.980469 269.746094 123.292969 270.628906 Z M 250.207031 267.507812 C 250.558594 267.472656 251.03125 267.398438 251.578125 267.222656 C 252.679688 266.863281 253.660156 266.359375 254.511719 265.757812 C 255.375 265.148438 256.074219 264.457031 256.59375 263.675781 C 257.113281 262.886719 257.230469 262.347656 256.921875 262.113281 C 256.617188 261.882812 255.886719 261.945312 254.792969 262.304688 C 253.703125 262.660156 252.730469 263.152344 251.863281 263.769531 C 251.003906 264.382812 250.304688 265.109375 249.78125 265.898438 C 249.261719 266.679688 249.148438 267.183594 249.449219 267.410156 C 249.605469 267.523438 249.855469 267.539062 250.207031 267.503906 Z M 260.46875 263.910156 C 260.75 263.890625 261.117188 263.820312 261.558594 263.675781 C 262.441406 263.386719 263.21875 262.957031 263.921875 262.445312 C 264.636719 261.929688 265.238281 261.351562 265.675781 260.695312 C 266.121094 260.023438 266.238281 259.582031 266.003906 259.371094 C 265.765625 259.167969 265.175781 259.226562 264.300781 259.511719 C 263.417969 259.800781 262.652344 260.179688 261.9375 260.695312 C 261.21875 261.214844 260.632812 261.820312 260.1875 262.492188 C 259.75 263.152344 259.617188 263.566406 259.855469 263.769531 C 259.976562 263.871094 260.191406 263.933594 260.472656 263.910156 Z M 85.082031 251.800781 C 85.335938 251.785156 85.738281 251.636719 86.355469 251.375 L 116.914062 237.421875 C 118 236.929688 117.929688 236.265625 117.527344 235.4375 L 82.003906 145.328125 L 84.558594 250.292969 C 84.636719 251.4375 84.65625 251.835938 85.078125 251.804688 Z M 289.988281 249.011719 L 293.25 146.886719 L 263.167969 235.25 C 262.722656 236.554688 262.734375 236.621094 263.640625 237.046875 L 289.984375 249.015625 Z M 126.417969 235.765625 L 254.605469 235.4375 C 256.4375 235.460938 256.363281 235.460938 255.457031 233.96875 L 190.371094 124.179688 C 189.273438 122.507812 189.390625 122.558594 188.242188 124.273438 L 125.710938 234.25 C 125.164062 235.121094 124.769531 235.734375 126.417969 235.761719 Z M 121.308594 232.882812 C 121.429688 232.832031 121.558594 232.386719 121.925781 231.699219 L 184.882812 120.917969 C 185.570312 119.75 185.734375 119.328125 184.078125 119.59375 L 84.128906 133.359375 C 82.542969 133.71875 82.589844 134.285156 83.132812 135.863281 L 120.832031 231.652344 C 121.082031 232.570312 121.1875 232.929688 121.304688 232.882812 Z M 259.527344 231.839844 C 259.648438 231.753906 259.761719 231.285156 260 230.609375 L 291.929688 136.625 C 292.472656 134.628906 292.535156 133.878906 290.511719 133.503906 L 195.011719 119.691406 C 193.207031 119.417969 193.4375 120.328125 193.875 121.203125 L 258.867188 230.851562 C 259.277344 231.679688 259.410156 231.933594 259.53125 231.847656 Z M 85.742188 230.609375 L 85.554688 226.683594 L 88.769531 224.605469 L 88.011719 210.367188 L 84.796875 213.535156 L 84.558594 209.65625 L 87.824219 206.535156 L 91.277344 204.3125 L 92.222656 222.425781 L 93.738281 221.480469 L 93.691406 220.347656 C 94.398438 220.445312 95.089844 220.402344 95.769531 220.253906 C 96.460938 220.089844 97.109375 219.8125 97.757812 219.402344 C 98.722656 218.789062 99.449219 218.070312 99.933594 217.226562 C 100.425781 216.375 100.644531 215.457031 100.597656 214.480469 C 100.546875 213.476562 100.253906 212.90625 99.699219 212.730469 C 99.148438 212.542969 98.359375 212.746094 97.332031 213.394531 L 95.867188 214.339844 L 95.675781 210.648438 L 97.191406 209.703125 C 98.105469 209.125 98.800781 208.445312 99.222656 207.71875 C 99.648438 206.980469 99.839844 206.171875 99.792969 205.257812 C 99.75 204.410156 99.492188 203.882812 99.035156 203.695312 C 98.578125 203.511719 97.9375 203.664062 97.144531 204.171875 C 96.558594 204.542969 95.980469 205.050781 95.394531 205.636719 C 94.804688 206.222656 94.214844 206.890625 93.644531 207.671875 L 93.453125 203.507812 C 94.15625 202.734375 94.835938 202.078125 95.535156 201.472656 C 96.234375 200.867188 96.933594 200.34375 97.617188 199.914062 C 99.449219 198.746094 100.820312 198.316406 101.777344 198.683594 C 102.742188 199.035156 103.289062 200.152344 103.386719 202.042969 C 103.453125 203.332031 103.304688 204.535156 102.914062 205.636719 C 102.519531 206.730469 101.902344 207.742188 101.070312 208.617188 C 102.039062 208.394531 102.796875 208.589844 103.339844 209.230469 C 103.886719 209.859375 104.164062 210.886719 104.238281 212.351562 C 104.351562 214.539062 103.925781 216.539062 102.914062 218.359375 C 101.898438 220.171875 100.332031 221.738281 98.277344 223.042969 C 97.554688 223.503906 96.84375 223.902344 96.101562 224.179688 C 95.949219 224.238281 95.78125 224.269531 95.628906 224.320312 L 95.582031 224.367188 L 85.746094 230.613281 Z M 287.289062 222.949219 C 286.808594 222.980469 286.304688 222.824219 285.730469 222.476562 C 284.464844 221.710938 283.542969 220.273438 282.988281 218.171875 C 282.953125 218.039062 282.921875 217.882812 282.894531 217.746094 L 282.703125 220.253906 L 275.890625 216.136719 L 276.175781 212.683594 L 278.398438 214.007812 L 279.390625 201.617188 L 277.074219 201.140625 L 277.3125 197.785156 L 279.675781 198.210938 L 282.042969 199.675781 L 280.765625 215.472656 L 282.703125 216.609375 C 282.414062 214.796875 282.316406 212.710938 282.515625 210.320312 C 282.777344 207.140625 283.402344 204.925781 284.359375 203.601562 C 285.320312 202.273438 286.496094 202.039062 287.90625 202.890625 C 288.351562 203.164062 288.773438 203.492188 289.183594 203.886719 C 289.59375 204.277344 290.023438 204.730469 290.414062 205.257812 L 290.128906 208.804688 C 289.75 208.167969 289.34375 207.644531 288.996094 207.242188 C 288.644531 206.832031 288.300781 206.507812 287.953125 206.296875 C 287.207031 205.84375 286.59375 205.914062 286.109375 206.488281 C 285.625 207.050781 285.316406 208.128906 285.117188 209.703125 C 285.4375 209.457031 285.757812 209.328125 286.109375 209.324219 C 286.460938 209.308594 286.847656 209.417969 287.246094 209.65625 C 288.238281 210.257812 288.953125 211.304688 289.46875 212.824219 C 289.984375 214.347656 290.1875 216.070312 290.035156 217.933594 C 289.867188 219.996094 289.398438 221.453125 288.617188 222.285156 C 288.222656 222.699219 287.773438 222.914062 287.292969 222.949219 Z M 286.582031 219.496094 C 286.757812 219.457031 286.921875 219.332031 287.054688 219.117188 C 287.324219 218.683594 287.480469 217.925781 287.574219 216.796875 C 287.667969 215.671875 287.65625 214.746094 287.480469 214.054688 C 287.308594 213.355469 286.976562 212.855469 286.535156 212.589844 C 286.097656 212.324219 285.761719 212.4375 285.492188 212.871094 C 285.230469 213.300781 285.066406 214.066406 284.972656 215.191406 C 284.882812 216.316406 284.898438 217.234375 285.066406 217.933594 C 285.242188 218.625 285.527344 219.085938 285.964844 219.351562 C 286.1875 219.488281 286.40625 219.535156 286.582031 219.496094 Z M 211.464844 212.496094 L 204.75 212.496094 L 204.75 207.480469 L 192.5 207.480469 L 192.5 201.378906 L 203.566406 184.917969 L 211.46875 184.917969 L 211.46875 202.324219 L 215.394531 202.324219 L 215.394531 207.480469 L 211.46875 207.480469 L 211.46875 212.496094 Z M 188.195312 212.496094 L 168.941406 212.496094 L 168.941406 207.574219 L 175.1875 207.574219 L 175.1875 189.742188 L 168.753906 191.066406 L 168.753906 186.242188 L 175.1875 184.917969 L 181.949219 184.917969 L 181.949219 207.574219 L 188.195312 207.574219 Z M 204.75 202.324219 L 204.75 190.734375 L 196.945312 202.324219 Z M 252.289062 181.464844 L 247.839844 175.410156 L 249.921875 174.039062 C 249.601562 173.964844 249.304688 173.910156 248.976562 173.800781 C 246.363281 172.921875 243.960938 170.972656 241.785156 168.03125 C 239.390625 164.789062 238.421875 161.726562 238.902344 158.761719 C 239.394531 155.800781 241.316406 153.226562 244.625 151.050781 C 248.015625 148.816406 251.425781 148.074219 254.890625 148.875 C 258.371094 149.679688 261.4375 151.921875 264.113281 155.542969 C 264.960938 156.691406 265.730469 157.820312 266.382812 158.996094 C 267.035156 160.171875 267.597656 161.386719 268.085938 162.640625 L 264.300781 165.144531 C 263.933594 163.816406 263.476562 162.613281 262.976562 161.550781 C 262.488281 160.480469 261.933594 159.507812 261.273438 158.617188 C 259.859375 156.703125 258.308594 155.515625 256.640625 155.023438 C 254.980469 154.527344 253.242188 154.730469 251.390625 155.683594 C 252.382812 156.125 253.277344 156.722656 254.132812 157.433594 C 254.996094 158.144531 255.796875 159.023438 256.542969 160.035156 C 258.429688 162.589844 259.363281 165.046875 259.289062 167.417969 C 259.222656 169.796875 258.203125 171.640625 256.214844 172.949219 C 255.664062 173.3125 255.085938 173.585938 254.511719 173.800781 L 257.585938 177.964844 Z M 131.578125 172.714844 L 126.421875 168.742188 L 118.191406 149.441406 L 122.304688 143.339844 L 137.160156 154.691406 L 139.195312 151.664062 L 143.59375 155.023438 L 141.511719 158.097656 L 145.816406 161.363281 L 142.269531 166.566406 L 138.011719 163.253906 Z M 248.742188 167.9375 C 249.542969 167.882812 250.398438 167.535156 251.296875 166.941406 C 252.496094 166.152344 253.15625 165.300781 253.332031 164.339844 C 253.523438 163.386719 253.226562 162.308594 252.382812 161.171875 C 251.554688 160.046875 250.617188 159.402344 249.59375 159.234375 C 248.585938 159.066406 247.484375 159.390625 246.28125 160.179688 C 245.082031 160.96875 244.394531 161.824219 244.203125 162.78125 C 244.027344 163.742188 244.316406 164.824219 245.148438 165.949219 C 245.988281 167.085938 246.929688 167.722656 247.9375 167.890625 C 248.195312 167.933594 248.476562 167.953125 248.742188 167.9375 Z M 129.546875 165.902344 L 133.613281 159.894531 L 123.773438 152.328125 Z M 284.363281 128.015625 L 190.65625 74.847656 C 189.441406 74.113281 189.160156 74.378906 189.332031 75.652344 L 191.320312 112.925781 C 191.371094 114.128906 191.535156 114.617188 192.785156 114.816406 L 284.359375 128.015625 Z M 90.621094 127.921875 L 185.746094 114.769531 C 187 114.585938 186.773438 113.96875 186.785156 113.066406 L 184.753906 75.132812 C 184.648438 73.980469 184.683594 73.566406 183.285156 74.28125 L 90.617188 127.921875 Z M 150.171875 111.554688 L 143.21875 103.84375 L 137.78125 107.058594 L 136.265625 105.355469 L 150.550781 96.890625 L 152.867188 95.519531 L 167.152344 87.050781 L 168.667969 88.707031 L 163.226562 91.921875 L 168.761719 97.976562 L 173.871094 94.242188 L 175.382812 95.898438 L 170.273438 99.585938 L 164.457031 103.039062 L 157.457031 95.328125 L 154.382812 97.175781 L 152.0625 98.546875 L 148.988281 100.390625 L 154.476562 106.445312 L 159.632812 102.707031 L 161.097656 104.363281 L 155.988281 108.101562 Z M 212.703125 110.417969 C 210.863281 110.335938 209.203125 109.699219 207.644531 108.527344 C 205.914062 107.226562 205.179688 105.820312 205.46875 104.269531 C 205.753906 102.71875 207.039062 101.167969 209.300781 99.632812 C 210.644531 98.722656 212.03125 98.101562 213.414062 97.695312 L 211.804688 96.464844 L 215.449219 94.003906 L 218.664062 96.417969 L 217.480469 97.222656 C 219.496094 97.355469 221.316406 98.011719 222.96875 99.253906 C 223.589844 99.722656 224.15625 100.179688 224.625 100.675781 C 225.097656 101.167969 225.503906 101.695312 225.855469 102.234375 L 223.253906 103.984375 C 222.976562 103.390625 222.667969 102.894531 222.308594 102.425781 C 221.941406 101.960938 221.515625 101.511719 221.03125 101.148438 C 220.011719 100.382812 218.882812 99.988281 217.71875 99.964844 C 216.546875 99.945312 215.355469 100.328125 214.078125 101.054688 C 214.792969 101.144531 215.449219 101.289062 216.0625 101.527344 C 216.675781 101.761719 217.234375 102.070312 217.765625 102.472656 C 219.125 103.492188 219.796875 104.636719 219.800781 105.832031 C 219.785156 107.023438 219.085938 108.070312 217.71875 109 C 216.207031 110.027344 214.539062 110.496094 212.703125 110.417969 Z M 211.902344 107.582031 C 212.617188 107.527344 213.355469 107.234375 214.171875 106.683594 C 214.992188 106.125 215.476562 105.582031 215.589844 105.074219 C 215.695312 104.570312 215.433594 104.105469 214.832031 103.65625 C 214.234375 103.203125 213.605469 102.992188 212.894531 103.039062 C 212.175781 103.09375 211.398438 103.429688 210.578125 103.984375 C 209.761719 104.539062 209.316406 105.039062 209.203125 105.546875 C 209.09375 106.054688 209.316406 106.5625 209.914062 107.011719 C 210.511719 107.464844 211.183594 107.632812 211.902344 107.582031 Z M 211.902344 107.582031 " fill-opacity="1" fill-rule="nonzero"/></g></svg>