<svg version="1.0" preserveAspectRatio="xMidYMid meet" viewBox="14.975999999999999 21.52066069421488 355.968 143.34297212396694" zoomAndPan="magnify" xmlns:xlink="http://www.w3.org/1999/xlink" xmlns="http://www.w3.org/2000/svg" style="max-height: 500px" width="355.968" height="143.34297212396694"><defs><g/><clipPath id="8b71cbf15e"><path clip-rule="nonzero" d="M 17 30 L 161 30 L 161 155 L 17 155 Z M 17 30"/></clipPath><clipPath id="6e261c02fc"><path clip-rule="nonzero" d="M 71.625 0 L 178.246094 61.558594 L 106.589844 185.667969 L -0.0273438 124.109375 Z M 71.625 0"/></clipPath><clipPath id="c72994ec3e"><path clip-rule="nonzero" d="M 124.933594 30.777344 L 160.335938 92.574219 L 124.523438 154.605469 L 53.304688 154.84375 L 17.902344 93.050781 L 53.71875 31.015625 Z M 124.933594 30.777344"/></clipPath><clipPath id="9bc63cafcc"><path clip-rule="nonzero" d="M 17 30 L 161 30 L 161 155 L 17 155 Z M 17 30"/></clipPath><clipPath id="8d3affe3b4"><path clip-rule="nonzero" d="M 71.625 0 L 178.363281 61.625 L 106.546875 186.019531 L -0.191406 124.394531 Z M 71.625 0"/></clipPath><clipPath id="322c5dbc0b"><path clip-rule="nonzero" d="M 71.628906 0 L 178.238281 61.554688 L 106.613281 185.609375 L 0.00390625 124.058594 Z M 71.628906 0"/></clipPath><clipPath id="e7f52768b1"><path clip-rule="nonzero" d="M 124.933594 30.777344 L 160.332031 92.566406 L 124.519531 154.59375 L 53.308594 154.832031 L 17.910156 93.042969 L 53.722656 31.015625 Z M 124.933594 30.777344"/></clipPath><clipPath id="31e0b6db65"><path clip-rule="nonzero" d="M 25 37 L 153 37 L 153 149 L 25 149 Z M 25 37"/></clipPath><clipPath id="092fa494a6"><path clip-rule="nonzero" d="M 73.46875 9.777344 L 168.855469 64.851562 L 104.75 175.886719 L 9.363281 120.816406 Z M 73.46875 9.777344"/></clipPath><clipPath id="cbf118ad98"><path clip-rule="nonzero" d="M 121.164062 37.316406 L 152.835938 92.601562 L 120.792969 148.097656 L 57.078125 148.3125 L 25.40625 93.027344 L 57.449219 37.527344 Z M 121.164062 37.316406"/></clipPath><clipPath id="e4b26156ac"><path clip-rule="nonzero" d="M 25 37 L 153 37 L 153 149 L 25 149 Z M 25 37"/></clipPath><clipPath id="4727591298"><path clip-rule="nonzero" d="M 73.46875 9.777344 L 168.972656 64.917969 L 105.03125 175.667969 L 9.527344 120.53125 Z M 73.46875 9.777344"/></clipPath><clipPath id="d8121766cf"><path clip-rule="nonzero" d="M 73.46875 9.78125 L 168.84375 64.847656 L 104.769531 175.832031 L 9.390625 120.765625 Z M 73.46875 9.78125"/></clipPath><clipPath id="5b3b7713a5"><path clip-rule="nonzero" d="M 121.15625 37.3125 L 152.824219 92.59375 L 120.789062 148.085938 L 57.078125 148.300781 L 25.410156 93.019531 L 57.449219 37.527344 Z M 121.15625 37.3125"/></clipPath><clipPath id="e1fbd5c888"><path clip-rule="nonzero" d="M 29.316406 23.214844 L 148.929688 23.214844 L 148.929688 162.457031 L 29.316406 162.457031 Z M 29.316406 23.214844"/></clipPath><clipPath id="1b2bb09eb6"><path clip-rule="nonzero" d="M 89.125 23.214844 L 148.929688 58.011719 L 148.929688 127.609375 L 89.125 162.40625 L 29.316406 127.609375 L 29.316406 58.011719 Z M 89.125 23.214844"/></clipPath><clipPath id="6217416479"><path clip-rule="nonzero" d="M 29.316406 23.21875 L 148.859375 23.21875 L 148.859375 162.222656 L 29.316406 162.222656 Z M 29.316406 23.21875"/></clipPath><clipPath id="7541c5bae5"><path clip-rule="nonzero" d="M 89.117188 23.21875 L 148.917969 58.011719 L 148.917969 127.597656 L 89.117188 162.390625 L 29.316406 127.597656 L 29.316406 58.011719 Z M 89.117188 23.21875"/></clipPath><clipPath id="d85da4218c"><path clip-rule="nonzero" d="M 35.488281 30.402344 L 142.757812 30.402344 L 142.757812 155.265625 L 35.488281 155.265625 Z M 35.488281 30.402344"/></clipPath><clipPath id="2ec901099a"><path clip-rule="nonzero" d="M 89.125 30.402344 L 142.757812 61.605469 L 142.757812 124.015625 L 89.125 155.21875 L 35.488281 124.015625 L 35.488281 61.605469 Z M 89.125 30.402344"/></clipPath><clipPath id="ac9995dc15"><path clip-rule="nonzero" d="M 39.230469 35 L 139.011719 35 L 139.011719 150.679688 L 39.230469 150.679688 Z M 39.230469 35"/></clipPath></defs><g clip-path="url(#8b71cbf15e)"><g clip-path="url(#6e261c02fc)"><g clip-path="url(#c72994ec3e)"><path fill-rule="nonzero" fill-opacity="1" d="M 71.625 0 L 178.246094 61.558594 L 106.589844 185.667969 L -0.0273438 124.109375 Z M 71.625 0" fill="#d9d9d9"/></g></g></g><g clip-path="url(#9bc63cafcc)"><g clip-path="url(#8d3affe3b4)"><g clip-path="url(#322c5dbc0b)"><g clip-path="url(#e7f52768b1)"><path stroke-miterlimit="4" stroke-opacity="1" stroke-width="6.474595" stroke="#151f28" d="M 66.421396 -0.000637547 L 132.840473 38.64372 L 132.839542 115.932594 L 66.419535 154.57711 L 0.000458125 115.932753 L 0.00138894 38.643879 Z M 66.421396 -0.000637547" stroke-linejoin="miter" fill="none" transform="matrix(0.802545, 0.463349, -0.463349, 0.802545, 71.62716, 0.00154155)" stroke-linecap="butt"/></g></g></g></g><g clip-path="url(#31e0b6db65)"><g clip-path="url(#092fa494a6)"><g clip-path="url(#cbf118ad98)"><path fill-rule="nonzero" fill-opacity="1" d="M 73.46875 9.777344 L 168.855469 64.851562 L 104.75 175.886719 L 9.363281 120.816406 Z M 73.46875 9.777344" fill="#d9d9d9"/></g></g></g><g clip-path="url(#e4b26156ac)"><g clip-path="url(#4727591298)"><g clip-path="url(#d8121766cf)"><g clip-path="url(#5b3b7713a5)"><path stroke-miterlimit="4" stroke-opacity="1" stroke-width="6.474595" stroke="#151f28" d="M 59.420784 -0.00160651 L 118.842347 34.573795 L 118.845406 103.717322 L 59.421709 138.293313 L 0.000145065 103.717912 L 0.000736423 34.572277 Z M 59.420784 -0.00160651" stroke-linejoin="miter" fill="none" transform="matrix(0.802545, 0.463349, -0.463349, 0.802545, 73.467671, 9.781205)" stroke-linecap="butt"/></g></g></g></g><g clip-path="url(#e1fbd5c888)"><g clip-path="url(#1b2bb09eb6)"><path fill-rule="nonzero" fill-opacity="1" d="M 29.316406 23.214844 L 148.929688 23.214844 L 148.929688 162.457031 L 29.316406 162.457031 Z M 29.316406 23.214844" fill="#d9d9d9"/></g></g><g clip-path="url(#6217416479)"><g clip-path="url(#7541c5bae5)"><path stroke-miterlimit="4" stroke-opacity="1" stroke-width="6.474595" stroke="#151f28" d="M 64.531571 0.0000872201 L 129.062547 37.545153 L 129.062547 112.635284 L 64.531571 150.18035 L 0.000593648 112.635284 L 0.000593648 37.545153 Z M 64.531571 0.0000872201" stroke-linejoin="miter" fill="none" transform="matrix(0.926699, 0, 0, 0.926699, 29.315856, 23.218669)" stroke-linecap="butt"/></g></g><g clip-path="url(#d85da4218c)"><g clip-path="url(#2ec901099a)"><path fill-rule="nonzero" fill-opacity="1" d="M 35.488281 30.402344 L 142.757812 30.402344 L 142.757812 155.265625 L 35.488281 155.265625 Z M 35.488281 30.402344" fill="#000000"/></g></g><g clip-path="url(#ac9995dc15)"><path fill-rule="nonzero" fill-opacity="1" d="M 90.191406 150.667969 C 90.402344 150.660156 90.644531 150.585938 90.777344 150.398438 L 120.519531 114.8125 C 121.015625 114.191406 121.046875 114.054688 120.382812 114.046875 L 60.8125 114.207031 C 59.992188 114.273438 59.988281 114.230469 60.519531 114.925781 L 89.742188 150.511719 C 89.804688 150.605469 89.984375 150.671875 90.191406 150.667969 Z M 84.484375 147.5 L 57.664062 114.878906 C 57.304688 114.445312 57.21875 114.417969 56.585938 114.722656 L 42.445312 121.195312 C 41.519531 121.613281 41.648438 121.699219 42.265625 122.117188 Z M 97.003906 146.308594 C 97.015625 146.332031 97.234375 146.171875 97.722656 145.835938 L 136.660156 120.207031 L 124.472656 114.675781 C 123.839844 114.46875 123.648438 114.457031 123.238281 114.96875 L 97.542969 145.65625 C 97.179688 146.074219 96.992188 146.28125 97.003906 146.308594 Z M 84.683594 133.3125 C 82.964844 133.3125 81.585938 132.71875 80.570312 131.539062 C 79.558594 130.359375 78.984375 128.679688 78.839844 126.503906 C 78.695312 124.332031 79.0625 122.648438 79.917969 121.464844 C 80.777344 120.289062 82.066406 119.714844 83.785156 119.714844 C 85.511719 119.714844 86.886719 120.289062 87.898438 121.464844 C 88.914062 122.648438 89.488281 124.328125 89.628906 126.503906 C 89.773438 128.679688 89.410156 130.359375 88.550781 131.539062 C 87.691406 132.71875 86.414062 133.3125 84.683594 133.3125 Z M 95.992188 133.179688 C 94.425781 133.179688 93.246094 132.835938 92.484375 132.144531 C 91.71875 131.453125 91.445312 130.503906 91.632812 129.265625 C 91.738281 128.554688 92.023438 127.886719 92.484375 127.265625 C 92.949219 126.652344 93.84375 125.808594 95.183594 124.769531 L 98.351562 122.320312 L 92.597656 122.320312 L 92.957031 119.847656 L 102.488281 119.847656 L 102.105469 122.320312 L 96.6875 126.546875 C 96.203125 126.933594 95.828125 127.300781 95.566406 127.671875 C 95.304688 128.039062 95.152344 128.441406 95.09375 128.839844 C 95 129.453125 95.117188 129.949219 95.476562 130.324219 C 95.828125 130.699219 96.363281 130.886719 97.050781 130.886719 C 97.574219 130.886719 98.164062 130.753906 98.824219 130.527344 C 99.484375 130.304688 100.203125 129.980469 100.984375 129.535156 L 100.554688 132.414062 C 99.757812 132.667969 98.980469 132.847656 98.21875 132.976562 C 97.453125 133.109375 96.707031 133.179688 95.992188 133.179688 Z M 84.527344 131 C 85.253906 131 85.746094 130.660156 86.011719 129.988281 C 86.277344 129.320312 86.367188 128.164062 86.257812 126.523438 C 86.148438 124.867188 85.917969 123.71875 85.5625 123.039062 C 85.207031 122.359375 84.667969 122.007812 83.941406 122.007812 C 83.222656 122.007812 82.726562 122.359375 82.460938 123.039062 C 82.195312 123.71875 82.101562 124.867188 82.210938 126.523438 C 82.320312 128.164062 82.554688 129.320312 82.910156 129.988281 C 83.257812 130.660156 83.800781 131 84.527344 131 Z M 116.855469 129.175781 C 116.542969 129.175781 116.324219 129.097656 116.226562 128.929688 C 116.03125 128.59375 116.277344 127.9375 116.945312 126.929688 C 117.613281 125.917969 118.382812 125.058594 119.261719 124.367188 C 120.140625 123.675781 121.109375 123.15625 122.160156 122.816406 C 122.839844 122.59375 123.308594 122.535156 123.574219 122.65625 C 123.84375 122.78125 123.90625 123.09375 123.757812 123.558594 C 124.261719 123.019531 124.792969 122.554688 125.351562 122.1875 C 125.914062 121.816406 126.484375 121.527344 127.082031 121.332031 C 127.976562 121.039062 128.511719 121.0625 128.65625 121.398438 C 128.800781 121.738281 128.542969 122.382812 127.914062 123.332031 C 127.292969 124.273438 126.59375 125.074219 125.800781 125.714844 C 125.015625 126.355469 124.160156 126.816406 123.261719 127.109375 C 122.660156 127.304688 122.242188 127.355469 122.003906 127.242188 C 121.757812 127.136719 121.703125 126.867188 121.824219 126.457031 C 121.273438 127.050781 120.695312 127.550781 120.070312 127.964844 C 119.445312 128.378906 118.792969 128.707031 118.113281 128.929688 C 117.589844 129.101562 117.167969 129.175781 116.855469 129.175781 Z M 56.855469 128.636719 C 56.320312 128.191406 55.824219 127.726562 55.371094 127.289062 C 54.914062 126.851562 54.496094 126.429688 54.132812 126.007812 C 53.335938 125.082031 52.910156 124.363281 52.875 123.847656 C 52.835938 123.332031 53.183594 123.066406 53.910156 123.0625 C 54.328125 123.0625 54.820312 123.183594 55.371094 123.398438 C 55.917969 123.613281 56.789062 124.054688 58 124.75 L 60.878906 126.390625 L 57.933594 122.996094 L 59.394531 122.972656 L 64.25 128.59375 L 62.789062 128.613281 L 57.867188 125.804688 C 57.421875 125.554688 57.039062 125.363281 56.71875 125.242188 C 56.398438 125.125 56.121094 125.0625 55.886719 125.0625 C 55.527344 125.0625 55.355469 125.199219 55.347656 125.445312 C 55.335938 125.6875 55.492188 126.007812 55.84375 126.410156 C 56.109375 126.722656 56.46875 127.078125 56.921875 127.445312 C 57.371094 127.816406 57.914062 128.195312 58.539062 128.613281 Z M 118.855469 127.132812 C 119.023438 127.117188 119.25 127.082031 119.507812 126.996094 C 120.03125 126.824219 120.496094 126.585938 120.902344 126.300781 C 121.3125 126.011719 121.644531 125.683594 121.890625 125.3125 C 122.140625 124.933594 122.195312 124.679688 122.046875 124.570312 C 121.902344 124.457031 121.554688 124.488281 121.035156 124.660156 C 120.515625 124.828125 120.054688 125.0625 119.644531 125.355469 C 119.234375 125.644531 118.902344 125.992188 118.652344 126.367188 C 118.40625 126.738281 118.355469 126.976562 118.496094 127.085938 C 118.570312 127.140625 118.691406 127.148438 118.855469 127.132812 Z M 123.734375 125.421875 C 123.867188 125.414062 124.042969 125.378906 124.25 125.3125 C 124.671875 125.171875 125.039062 124.96875 125.375 124.726562 C 125.714844 124.480469 126 124.207031 126.207031 123.894531 C 126.417969 123.574219 126.476562 123.363281 126.363281 123.265625 C 126.25 123.167969 125.972656 123.195312 125.554688 123.332031 C 125.136719 123.46875 124.769531 123.648438 124.429688 123.894531 C 124.089844 124.140625 123.8125 124.429688 123.601562 124.75 C 123.390625 125.0625 123.328125 125.257812 123.441406 125.355469 C 123.5 125.402344 123.601562 125.433594 123.734375 125.421875 Z M 40.378906 119.667969 C 40.5 119.660156 40.691406 119.589844 40.984375 119.464844 L 55.507812 112.835938 C 56.023438 112.601562 55.992188 112.285156 55.800781 111.890625 L 38.917969 69.066406 L 40.132812 118.949219 C 40.167969 119.496094 40.175781 119.683594 40.378906 119.667969 Z M 137.761719 118.34375 L 139.3125 69.808594 L 125.015625 111.800781 C 124.804688 112.421875 124.808594 112.453125 125.242188 112.65625 Z M 60.027344 112.046875 L 120.949219 111.890625 C 121.816406 111.902344 121.78125 111.902344 121.351562 111.191406 L 90.417969 59.015625 C 89.898438 58.21875 89.953125 58.246094 89.40625 59.058594 L 59.6875 111.324219 C 59.429688 111.742188 59.242188 112.03125 60.027344 112.046875 Z M 57.597656 110.675781 C 57.652344 110.652344 57.714844 110.441406 57.890625 110.113281 L 87.8125 57.464844 C 88.136719 56.910156 88.214844 56.710938 87.429688 56.835938 L 39.925781 63.378906 C 39.171875 63.550781 39.195312 63.820312 39.453125 64.570312 L 57.371094 110.089844 C 57.488281 110.527344 57.539062 110.699219 57.597656 110.675781 Z M 123.285156 110.179688 C 123.34375 110.140625 123.398438 109.917969 123.511719 109.597656 L 138.683594 64.929688 C 138.945312 63.980469 138.972656 63.625 138.011719 63.445312 L 92.625 56.882812 C 91.765625 56.753906 91.875 57.183594 92.085938 57.601562 L 122.972656 109.710938 C 123.167969 110.105469 123.230469 110.226562 123.289062 110.183594 Z M 40.695312 109.597656 L 40.605469 107.730469 L 42.132812 106.742188 L 41.773438 99.976562 L 40.246094 101.480469 L 40.132812 99.636719 L 41.683594 98.15625 L 43.324219 97.097656 L 43.773438 105.707031 L 44.492188 105.257812 L 44.472656 104.71875 C 44.808594 104.765625 45.136719 104.746094 45.460938 104.675781 C 45.789062 104.597656 46.097656 104.464844 46.40625 104.269531 C 46.863281 103.976562 47.207031 103.636719 47.4375 103.234375 C 47.671875 102.832031 47.777344 102.394531 47.753906 101.929688 C 47.730469 101.453125 47.589844 101.183594 47.328125 101.097656 C 47.066406 101.011719 46.691406 101.105469 46.203125 101.414062 L 45.503906 101.863281 L 45.414062 100.109375 L 46.132812 99.660156 C 46.570312 99.386719 46.898438 99.0625 47.101562 98.714844 C 47.304688 98.367188 47.394531 97.984375 47.371094 97.546875 C 47.351562 97.144531 47.230469 96.894531 47.011719 96.804688 C 46.792969 96.71875 46.488281 96.789062 46.113281 97.03125 C 45.832031 97.207031 45.558594 97.449219 45.28125 97.726562 C 45 98.007812 44.71875 98.324219 44.449219 98.695312 L 44.359375 96.714844 C 44.691406 96.347656 45.015625 96.039062 45.347656 95.75 C 45.679688 95.460938 46.011719 95.214844 46.335938 95.007812 C 47.207031 94.453125 47.859375 94.25 48.316406 94.421875 C 48.773438 94.589844 49.035156 95.121094 49.078125 96.019531 C 49.109375 96.632812 49.042969 97.203125 48.855469 97.726562 C 48.667969 98.246094 48.375 98.726562 47.976562 99.144531 C 48.441406 99.039062 48.800781 99.128906 49.058594 99.4375 C 49.316406 99.734375 49.449219 100.222656 49.484375 100.917969 C 49.539062 101.957031 49.335938 102.910156 48.855469 103.773438 C 48.375 104.636719 47.628906 105.378906 46.652344 106 C 46.308594 106.21875 45.96875 106.40625 45.617188 106.539062 C 45.546875 106.566406 45.464844 106.582031 45.394531 106.605469 L 45.371094 106.628906 Z M 136.480469 105.953125 C 136.25 105.96875 136.011719 105.894531 135.738281 105.730469 C 135.140625 105.367188 134.699219 104.683594 134.433594 103.683594 C 134.417969 103.621094 134.40625 103.546875 134.390625 103.480469 L 134.300781 104.671875 L 131.0625 102.71875 L 131.199219 101.078125 L 132.253906 101.707031 L 132.726562 95.816406 L 131.625 95.589844 L 131.738281 93.996094 L 132.863281 94.199219 L 133.984375 94.894531 L 133.378906 102.402344 L 134.300781 102.941406 C 134.164062 102.082031 134.117188 101.089844 134.210938 99.953125 C 134.335938 98.441406 134.632812 97.390625 135.085938 96.761719 C 135.542969 96.128906 136.101562 96.015625 136.773438 96.421875 C 136.984375 96.550781 137.1875 96.707031 137.378906 96.894531 C 137.574219 97.082031 137.78125 97.296875 137.964844 97.546875 L 137.828125 99.234375 C 137.648438 98.929688 137.457031 98.683594 137.289062 98.492188 C 137.125 98.296875 136.960938 98.140625 136.796875 98.042969 C 136.441406 97.828125 136.148438 97.859375 135.917969 98.132812 C 135.6875 98.398438 135.542969 98.914062 135.445312 99.660156 C 135.601562 99.542969 135.753906 99.480469 135.917969 99.480469 C 136.085938 99.472656 136.269531 99.523438 136.457031 99.636719 C 136.929688 99.925781 137.273438 100.421875 137.515625 101.144531 C 137.761719 101.867188 137.859375 102.6875 137.785156 103.570312 C 137.703125 104.550781 137.484375 105.246094 137.109375 105.640625 C 136.925781 105.835938 136.710938 105.9375 136.480469 105.953125 Z M 136.144531 104.3125 C 136.226562 104.296875 136.304688 104.234375 136.367188 104.132812 C 136.496094 103.929688 136.570312 103.566406 136.617188 103.03125 C 136.660156 102.496094 136.652344 102.058594 136.570312 101.730469 C 136.488281 101.398438 136.332031 101.160156 136.121094 101.03125 C 135.914062 100.90625 135.753906 100.960938 135.628906 101.167969 C 135.503906 101.371094 135.421875 101.734375 135.378906 102.269531 C 135.335938 102.804688 135.34375 103.238281 135.425781 103.570312 C 135.507812 103.902344 135.644531 104.121094 135.851562 104.246094 C 135.957031 104.3125 136.058594 104.332031 136.144531 104.3125 Z M 100.445312 100.988281 L 97.253906 100.988281 L 97.253906 98.605469 L 91.429688 98.605469 L 91.429688 95.703125 L 96.691406 87.882812 L 100.445312 87.882812 L 100.445312 96.152344 L 102.3125 96.152344 L 102.3125 98.605469 L 100.445312 98.605469 Z M 89.386719 100.988281 L 80.234375 100.988281 L 80.234375 98.648438 L 83.203125 98.648438 L 83.203125 90.171875 L 80.144531 90.804688 L 80.144531 88.511719 L 83.203125 87.878906 L 86.417969 87.878906 L 86.417969 98.648438 L 89.386719 98.648438 Z M 97.253906 96.152344 L 97.253906 90.644531 L 93.542969 96.152344 Z M 119.84375 86.238281 L 117.730469 83.363281 L 118.722656 82.710938 C 118.570312 82.675781 118.425781 82.648438 118.273438 82.597656 C 117.03125 82.179688 115.886719 81.253906 114.855469 79.855469 C 113.714844 78.316406 113.257812 76.859375 113.484375 75.449219 C 113.71875 74.042969 114.632812 72.820312 116.203125 71.785156 C 117.8125 70.722656 119.433594 70.371094 121.082031 70.75 C 122.738281 71.132812 124.195312 72.199219 125.464844 73.921875 C 125.867188 74.464844 126.234375 75.003906 126.542969 75.5625 C 126.855469 76.121094 127.121094 76.699219 127.355469 77.292969 L 125.554688 78.484375 C 125.378906 77.851562 125.164062 77.28125 124.925781 76.777344 C 124.691406 76.269531 124.429688 75.804688 124.117188 75.382812 C 123.445312 74.472656 122.707031 73.90625 121.914062 73.671875 C 121.125 73.4375 120.300781 73.535156 119.417969 73.988281 C 119.890625 74.195312 120.316406 74.480469 120.722656 74.820312 C 121.132812 75.15625 121.511719 75.574219 121.867188 76.054688 C 122.765625 77.269531 123.207031 78.4375 123.171875 79.5625 C 123.140625 80.695312 122.65625 81.570312 121.710938 82.195312 C 121.449219 82.367188 121.175781 82.496094 120.902344 82.597656 L 122.363281 84.578125 Z M 62.476562 82.082031 L 60.027344 80.191406 L 56.117188 71.019531 L 58.070312 68.121094 L 65.128906 73.515625 L 66.097656 72.078125 L 68.1875 73.671875 L 67.199219 75.136719 L 69.242188 76.6875 L 67.558594 79.160156 L 65.535156 77.585938 Z M 118.160156 79.8125 C 118.542969 79.785156 118.945312 79.621094 119.375 79.339844 C 119.945312 78.964844 120.257812 78.558594 120.339844 78.101562 C 120.433594 77.648438 120.289062 77.136719 119.890625 76.597656 C 119.496094 76.0625 119.050781 75.753906 118.566406 75.675781 C 118.085938 75.597656 117.5625 75.75 116.992188 76.125 C 116.421875 76.5 116.09375 76.90625 116.003906 77.359375 C 115.917969 77.816406 116.058594 78.332031 116.453125 78.867188 C 116.851562 79.40625 117.300781 79.710938 117.777344 79.789062 C 117.898438 79.808594 118.035156 79.820312 118.160156 79.808594 Z M 61.511719 78.84375 L 63.445312 75.988281 L 58.769531 72.390625 Z M 135.089844 60.835938 L 90.554688 35.570312 C 89.976562 35.21875 89.84375 35.347656 89.925781 35.953125 L 90.871094 53.664062 C 90.894531 54.238281 90.972656 54.46875 91.566406 54.566406 L 135.085938 60.835938 Z M 43.011719 60.792969 L 88.222656 54.542969 C 88.816406 54.453125 88.710938 54.164062 88.714844 53.734375 L 87.75 35.703125 C 87.699219 35.15625 87.714844 34.960938 87.050781 35.300781 Z M 71.316406 53.015625 L 68.011719 49.351562 L 65.425781 50.878906 L 64.707031 50.070312 L 71.496094 46.046875 L 72.597656 45.394531 L 79.386719 41.371094 L 80.105469 42.15625 L 77.519531 43.683594 L 80.148438 46.5625 L 82.578125 44.785156 L 83.296875 45.574219 L 80.867188 47.328125 L 78.105469 48.96875 L 74.777344 45.304688 L 73.316406 46.179688 L 72.214844 46.832031 L 70.753906 47.710938 L 73.359375 50.585938 L 75.8125 48.8125 L 76.507812 49.597656 L 74.078125 51.375 Z M 101.035156 52.476562 C 100.160156 52.433594 99.367188 52.132812 98.628906 51.574219 C 97.804688 50.957031 97.457031 50.289062 97.59375 49.550781 C 97.730469 48.816406 98.339844 48.078125 99.414062 47.347656 C 100.054688 46.917969 100.714844 46.621094 101.371094 46.429688 L 100.605469 45.84375 L 102.335938 44.675781 L 103.867188 45.820312 L 103.304688 46.203125 C 104.261719 46.265625 105.125 46.578125 105.910156 47.167969 C 106.207031 47.390625 106.476562 47.609375 106.699219 47.84375 C 106.925781 48.078125 107.117188 48.328125 107.28125 48.585938 L 106.046875 49.417969 C 105.914062 49.136719 105.769531 48.898438 105.597656 48.675781 C 105.421875 48.457031 105.222656 48.242188 104.988281 48.070312 C 104.503906 47.703125 103.96875 47.519531 103.417969 47.507812 C 102.859375 47.496094 102.292969 47.679688 101.683594 48.023438 C 102.027344 48.066406 102.339844 48.136719 102.628906 48.25 C 102.921875 48.359375 103.183594 48.507812 103.4375 48.699219 C 104.082031 49.183594 104.40625 49.726562 104.40625 50.292969 C 104.398438 50.863281 104.066406 51.359375 103.417969 51.800781 C 102.699219 52.289062 101.90625 52.511719 101.035156 52.476562 Z M 100.652344 51.125 C 100.992188 51.101562 101.34375 50.960938 101.730469 50.699219 C 102.121094 50.433594 102.351562 50.175781 102.40625 49.933594 C 102.457031 49.695312 102.328125 49.472656 102.046875 49.261719 C 101.761719 49.046875 101.460938 48.945312 101.125 48.96875 C 100.78125 48.992188 100.414062 49.152344 100.023438 49.417969 C 99.632812 49.679688 99.421875 49.917969 99.371094 50.160156 C 99.316406 50.402344 99.421875 50.640625 99.707031 50.855469 C 99.992188 51.070312 100.3125 51.152344 100.652344 51.125 Z M 100.652344 51.125" fill="#c49a29"/></g><path stroke-miterlimit="4" stroke-opacity="1" stroke-width="3.483023" stroke="#000000" d="M 27.12054 43.51665 C 27.489538 43.635865 27.733644 43.760757 27.858536 43.891325 C 27.983428 44.01054 28.05155 44.1922 28.05155 44.441984 L 28.05155 44.998319 L 17.878559 44.998319 L 17.878559 44.441984 C 17.878559 44.1922 17.941005 44.01054 18.060219 43.891325 C 18.190788 43.760757 18.42354 43.635865 18.764154 43.51665 L 20.01307 43.33499 L 17.276808 32.276403 L 7.381984 35.432755 L 5.247473 43.278221 L 6.643988 43.51665 C 7.075432 43.703988 7.291154 44.016217 7.291154 44.441984 L 7.291154 44.998319 L -0.0433911 44.998319 L -0.0433911 44.441984 C -0.0433911 44.016217 0.172331 43.703988 0.598098 43.51665 L 1.949198 43.18739 L 11.054934 12.163173 C 11.054934 12.163173 11.29904 12.197234 11.79293 12.265357 C 12.292496 12.327802 12.911278 12.435663 13.649274 12.583263 C 14.398624 12.736539 15.159327 12.969291 15.931385 13.275843 C 16.703442 13.588073 17.396023 13.991132 18.014804 14.490699 C 18.633585 14.978911 19.053676 15.603369 19.275074 16.347042 C 19.615688 17.647051 20.007393 19.208196 20.455868 21.019125 C 20.904343 22.824377 21.381201 24.73749 21.869414 26.758463 C 22.368981 28.768083 22.851517 30.749319 23.311345 32.696493 C 23.77685 34.649344 24.191263 36.414858 24.548908 37.993034 C 24.900875 39.565533 25.184719 40.83148 25.394765 41.790875 C 25.616163 42.75027 25.724024 43.232806 25.724024 43.232806 Z M 8.131334 32.787323 L 16.442305 28.932713 L 12.956693 15.092449 Z M 57.264839 43.562065 C 57.633837 43.652896 57.877944 43.766433 58.002835 43.914033 C 58.127727 44.050278 58.19585 44.237616 58.19585 44.487399 L 58.19585 44.998319 L 50.844274 44.998319 L 44.815414 33.899994 C 44.344232 33.059814 43.833312 32.497802 43.271299 32.20828 C 42.720641 31.918759 41.937229 31.771159 40.915389 31.771159 L 40.915389 43.232806 L 42.260812 43.562065 C 42.635487 43.652896 42.873917 43.760757 42.976101 43.891325 C 43.083962 44.01054 43.135054 44.1922 43.135054 44.441984 L 43.135054 44.998319 L 32.967739 44.998319 L 32.967739 44.441984 C 32.967739 44.1922 33.024508 44.01054 33.1494 43.891325 C 33.274291 43.760757 33.524075 43.652896 33.89875 43.562065 L 35.198758 43.278221 L 35.198758 14.910789 L 34.267748 14.910789 C 33.399183 14.910789 32.967739 14.643975 32.967739 14.116024 L 32.967739 13.468858 L 40.915389 12.163173 L 40.869974 15.183279 L 48.670024 12.208588 C 48.670024 12.208588 48.91413 12.407279 49.40802 12.798985 C 49.907587 13.185013 50.480953 13.764056 51.128119 14.536114 C 51.780961 15.308171 52.34865 16.233505 52.84254 17.323468 C 53.342107 18.407754 53.59189 19.662348 53.59189 21.087248 C 53.59189 22.699485 53.046908 24.15277 51.956945 25.452778 C 50.878335 26.752786 49.640773 27.882488 48.249934 28.841883 C 48.278318 28.932713 48.465656 29.284681 48.806269 29.886431 C 49.146883 30.493859 49.561296 31.265916 50.055186 32.20828 C 50.549075 33.150644 51.094057 34.155454 51.684454 35.228387 C 52.274851 36.289966 52.831186 37.311807 53.35346 38.288232 C 53.881411 39.264658 54.335563 40.116192 54.721592 40.848511 C 55.118974 41.575153 55.374434 42.046335 55.493649 42.25638 C 55.896708 43.00573 56.288414 43.408789 56.674443 43.471235 C 57.066148 43.528004 57.264839 43.562065 57.264839 43.562065 Z M 40.915389 30.420059 C 40.915389 30.420059 41.119757 30.300844 41.539847 30.068092 C 41.95426 29.835339 42.476534 29.494726 43.112346 29.046251 C 43.748158 28.603453 44.38397 28.035764 45.019782 27.360214 C 45.655594 26.667633 46.183545 25.855837 46.614989 24.91915 C 47.057787 23.976786 47.273508 22.915207 47.273508 21.734413 C 47.273508 20.406021 47.057787 19.361472 46.614989 18.606446 C 46.183545 17.840065 45.655594 17.289407 45.019782 16.948793 C 44.38397 16.608179 43.748158 16.409488 43.112346 16.347042 C 42.476534 16.290273 41.95426 16.27892 41.539847 16.324335 C 41.119757 16.36975 40.915389 16.392458 40.915389 16.392458 Z M 71.008596 42.9149 C 72.927386 42.9149 74.607746 42.648086 76.038323 42.120135 C 77.485931 41.592184 78.678078 40.979079 79.614765 40.280821 C 80.55713 39.588241 81.266741 38.980813 81.7436 38.458539 C 82.226136 37.930588 82.470242 37.663774 82.470242 37.663774 L 82.424827 44.998319 L 63.106362 44.998319 L 63.106362 44.441984 C 63.106362 44.1922 63.163131 44.01054 63.288022 43.891325 C 63.412914 43.760757 63.662697 43.635865 64.031695 43.51665 L 65.337381 43.232806 L 65.337381 14.865373 L 64.031695 14.581529 C 63.662697 14.490699 63.412914 14.382838 63.288022 14.263623 C 63.163131 14.133054 63.106362 13.928686 63.106362 13.650518 L 63.106362 13.094183 L 82.424827 13.094183 L 82.470242 19.140074 C 82.470242 19.140074 82.226136 18.947059 81.7436 18.56103 C 81.266741 18.169325 80.55713 17.709497 79.614765 17.187222 C 78.678078 16.659271 77.485931 16.193766 76.038323 15.796384 C 74.607746 15.387648 72.927386 15.183279 71.008596 15.183279 L 71.008596 28.274194 L 80.199485 26.940124 L 80.199485 30.69255 L 71.008596 30.69255 Z M 106.29616 13.048768 L 113.40363 13.048768 L 113.40363 13.650518 C 113.40363 13.809471 113.239 13.985455 112.915417 14.172793 C 112.591834 14.354453 112.273928 14.513406 111.961699 14.661005 C 111.655147 14.797251 111.496194 14.865373 111.496194 14.865373 L 111.496194 44.998319 L 105.410565 44.952904 L 94.459839 18.390724 L 94.459839 43.141975 L 94.777745 43.18739 L 96.123169 43.51665 C 96.594351 43.703988 96.827104 44.016217 96.827104 44.441984 L 96.827104 44.998319 L 88.879454 44.998319 L 88.879454 44.441984 C 88.879454 44.016217 89.129237 43.703988 89.628804 43.51665 L 91.11615 43.18739 L 91.201303 43.141975 L 91.201303 14.865373 L 89.810464 14.536114 C 89.441466 14.445283 89.191683 14.337422 89.061115 14.218208 C 88.9419 14.087639 88.879454 13.900302 88.879454 13.650518 L 88.879454 13.048768 L 98.16685 13.048768 L 108.19792 38.91269 L 108.19792 14.910789 L 108.107089 14.865373 C 108.107089 14.865373 107.95949 14.797251 107.664292 14.661005 C 107.369093 14.513406 107.068218 14.354453 106.761666 14.172793 C 106.449437 13.985455 106.29616 13.809471 106.29616 13.650518 Z M 145.444012 43.51665 C 145.81301 43.635865 146.057116 43.760757 146.182008 43.891325 C 146.306899 44.01054 146.375022 44.1922 146.375022 44.441984 L 146.375022 44.998319 L 136.202031 44.998319 L 136.202031 44.441984 C 136.202031 44.1922 136.264476 44.01054 136.383691 43.891325 C 136.51426 43.760757 136.747012 43.635865 137.087626 43.51665 L 138.336542 43.33499 L 135.60028 32.276403 L 125.705456 35.432755 L 123.570945 43.278221 L 124.96746 43.51665 C 125.398904 43.703988 125.614626 44.016217 125.614626 44.441984 L 125.614626 44.998319 L 118.280081 44.998319 L 118.280081 44.441984 C 118.280081 44.016217 118.495803 43.703988 118.927246 43.51665 L 120.27267 43.18739 L 129.378406 12.163173 C 129.378406 12.163173 129.622512 12.197234 130.116402 12.265357 C 130.615968 12.327802 131.23475 12.435663 131.972746 12.583263 C 132.722095 12.736539 133.482799 12.969291 134.254856 13.275843 C 135.026914 13.588073 135.719495 13.991132 136.338276 14.490699 C 136.957057 14.978911 137.377147 15.603369 137.598546 16.347042 C 137.93916 17.647051 138.330865 19.208196 138.77934 21.019125 C 139.233491 22.824377 139.704673 24.73749 140.192886 26.758463 C 140.692453 28.768083 141.174988 30.749319 141.634817 32.696493 C 142.100322 34.649344 142.514735 36.414858 142.872379 37.993034 C 143.224347 39.565533 143.508191 40.83148 143.718236 41.790875 C 143.939635 42.75027 144.047496 43.232806 144.047496 43.232806 Z M 126.454806 32.787323 L 134.765777 28.932713 L 131.280165 15.092449 Z M 126.454806 32.787323" stroke-linejoin="miter" fill="none" transform="matrix(0.688097, 0, 0, 0.688097, 168.377513, 89.614938)" stroke-linecap="butt"/><g fill-opacity="1" fill="#c49a29"><g transform="translate(168.377513, 120.579282)"><g><path d="M 18.65625 -1.015625 C 18.914062 -0.929688 19.085938 -0.847656 19.171875 -0.765625 C 19.253906 -0.679688 19.296875 -0.554688 19.296875 -0.390625 L 19.296875 0 L 12.296875 0 L 12.296875 -0.390625 C 12.296875 -0.554688 12.335938 -0.679688 12.421875 -0.765625 C 12.515625 -0.847656 12.675781 -0.929688 12.90625 -1.015625 L 13.765625 -1.15625 L 11.890625 -8.75 L 5.078125 -6.578125 L 3.609375 -1.1875 L 4.5625 -1.015625 C 4.863281 -0.890625 5.015625 -0.679688 5.015625 -0.390625 L 5.015625 0 L -0.03125 0 L -0.03125 -0.390625 C -0.03125 -0.679688 0.117188 -0.890625 0.421875 -1.015625 L 1.34375 -1.25 L 7.609375 -22.59375 C 7.609375 -22.59375 7.773438 -22.570312 8.109375 -22.53125 C 8.453125 -22.488281 8.878906 -22.410156 9.390625 -22.296875 C 9.898438 -22.191406 10.421875 -22.03125 10.953125 -21.8125 C 11.492188 -21.601562 11.972656 -21.328125 12.390625 -20.984375 C 12.816406 -20.648438 13.109375 -20.226562 13.265625 -19.71875 C 13.492188 -18.820312 13.757812 -17.75 14.0625 -16.5 C 14.375 -15.257812 14.703125 -13.945312 15.046875 -12.5625 C 15.390625 -11.175781 15.71875 -9.8125 16.03125 -8.46875 C 16.351562 -7.125 16.632812 -5.90625 16.875 -4.8125 C 17.125 -3.726562 17.320312 -2.859375 17.46875 -2.203125 C 17.625 -1.546875 17.703125 -1.21875 17.703125 -1.21875 Z M 5.59375 -8.40625 L 11.3125 -11.0625 L 8.921875 -20.578125 Z M 5.59375 -8.40625"/></g></g></g><g fill-opacity="1" fill="#c49a29"><g transform="translate(190.265805, 120.579282)"><g><path d="M 17.515625 -0.984375 C 17.765625 -0.921875 17.929688 -0.84375 18.015625 -0.75 C 18.109375 -0.65625 18.15625 -0.519531 18.15625 -0.34375 L 18.15625 0 L 13.09375 0 L 8.953125 -7.640625 C 8.628906 -8.210938 8.273438 -8.597656 7.890625 -8.796875 C 7.503906 -9.003906 6.960938 -9.109375 6.265625 -9.109375 L 6.265625 -1.21875 L 7.1875 -0.984375 C 7.445312 -0.921875 7.613281 -0.847656 7.6875 -0.765625 C 7.757812 -0.679688 7.796875 -0.554688 7.796875 -0.390625 L 7.796875 0 L 0.796875 0 L 0.796875 -0.390625 C 0.796875 -0.554688 0.835938 -0.679688 0.921875 -0.765625 C 1.003906 -0.847656 1.175781 -0.921875 1.4375 -0.984375 L 2.328125 -1.1875 L 2.328125 -20.703125 L 1.6875 -20.703125 C 1.09375 -20.703125 0.796875 -20.882812 0.796875 -21.25 L 0.796875 -21.703125 L 6.265625 -22.59375 L 6.234375 -20.515625 L 11.59375 -22.5625 C 11.59375 -22.5625 11.765625 -22.425781 12.109375 -22.15625 C 12.453125 -21.894531 12.847656 -21.492188 13.296875 -20.953125 C 13.742188 -20.421875 14.132812 -19.78125 14.46875 -19.03125 C 14.8125 -18.289062 14.984375 -17.429688 14.984375 -16.453125 C 14.984375 -15.347656 14.609375 -14.347656 13.859375 -13.453125 C 13.117188 -12.554688 12.269531 -11.78125 11.3125 -11.125 C 11.332031 -11.0625 11.457031 -10.820312 11.6875 -10.40625 C 11.925781 -9.988281 12.210938 -9.453125 12.546875 -8.796875 C 12.890625 -8.148438 13.265625 -7.457031 13.671875 -6.71875 C 14.078125 -5.988281 14.460938 -5.285156 14.828125 -4.609375 C 15.191406 -3.941406 15.503906 -3.359375 15.765625 -2.859375 C 16.035156 -2.359375 16.210938 -2.035156 16.296875 -1.890625 C 16.578125 -1.378906 16.847656 -1.097656 17.109375 -1.046875 C 17.378906 -1.003906 17.515625 -0.984375 17.515625 -0.984375 Z M 6.265625 -10.03125 C 6.265625 -10.03125 6.40625 -10.109375 6.6875 -10.265625 C 6.976562 -10.429688 7.34375 -10.664062 7.78125 -10.96875 C 8.21875 -11.28125 8.65625 -11.671875 9.09375 -12.140625 C 9.53125 -12.609375 9.894531 -13.164062 10.1875 -13.8125 C 10.488281 -14.46875 10.640625 -15.203125 10.640625 -16.015625 C 10.640625 -16.921875 10.488281 -17.632812 10.1875 -18.15625 C 9.894531 -18.6875 9.53125 -19.066406 9.09375 -19.296875 C 8.65625 -19.535156 8.21875 -19.675781 7.78125 -19.71875 C 7.34375 -19.757812 6.976562 -19.765625 6.6875 -19.734375 C 6.40625 -19.703125 6.265625 -19.6875 6.265625 -19.6875 Z M 6.265625 -10.03125"/></g></g></g><g fill-opacity="1" fill="#c49a29"><g transform="translate(211.003768, 120.579282)"><g><path d="M 6.234375 -1.4375 C 7.554688 -1.4375 8.710938 -1.617188 9.703125 -1.984375 C 10.691406 -2.347656 11.507812 -2.769531 12.15625 -3.25 C 12.800781 -3.726562 13.289062 -4.144531 13.625 -4.5 C 13.957031 -4.863281 14.125 -5.046875 14.125 -5.046875 L 14.09375 0 L 0.796875 0 L 0.796875 -0.390625 C 0.796875 -0.554688 0.835938 -0.679688 0.921875 -0.765625 C 1.003906 -0.847656 1.175781 -0.929688 1.4375 -1.015625 L 2.328125 -1.21875 L 2.328125 -20.734375 L 1.4375 -20.921875 C 1.175781 -20.992188 1.003906 -21.070312 0.921875 -21.15625 C 0.835938 -21.238281 0.796875 -21.375 0.796875 -21.5625 L 0.796875 -21.953125 L 14.09375 -21.953125 L 14.125 -17.796875 C 14.125 -17.796875 13.957031 -17.925781 13.625 -18.1875 C 13.289062 -18.457031 12.800781 -18.773438 12.15625 -19.140625 C 11.507812 -19.503906 10.691406 -19.820312 9.703125 -20.09375 C 8.710938 -20.375 7.554688 -20.515625 6.234375 -20.515625 L 6.234375 -11.5 L 12.5625 -12.4375 L 12.5625 -9.84375 L 6.234375 -9.84375 Z M 6.234375 -1.4375"/></g></g></g><g fill-opacity="1" fill="#c49a29"><g transform="translate(228.802013, 120.579282)"><g><path d="M 12.71875 -21.984375 L 17.609375 -21.984375 L 17.609375 -21.5625 C 17.609375 -21.457031 17.492188 -21.34375 17.265625 -21.21875 C 17.046875 -21.09375 16.828125 -20.976562 16.609375 -20.875 C 16.398438 -20.78125 16.296875 -20.734375 16.296875 -20.734375 L 16.296875 0 L 12.109375 -0.03125 L 4.5625 -18.3125 L 4.5625 -1.28125 L 4.796875 -1.25 L 5.71875 -1.015625 C 6.039062 -0.890625 6.203125 -0.679688 6.203125 -0.390625 L 6.203125 0 L 0.734375 0 L 0.734375 -0.390625 C 0.734375 -0.679688 0.90625 -0.890625 1.25 -1.015625 L 2.265625 -1.25 L 2.328125 -1.28125 L 2.328125 -20.734375 L 1.375 -20.96875 C 1.113281 -21.03125 0.941406 -21.101562 0.859375 -21.1875 C 0.773438 -21.269531 0.734375 -21.394531 0.734375 -21.5625 L 0.734375 -21.984375 L 7.125 -21.984375 L 14.03125 -4.1875 L 14.03125 -20.703125 L 13.96875 -20.734375 C 13.96875 -20.734375 13.863281 -20.78125 13.65625 -20.875 C 13.457031 -20.976562 13.25 -21.09375 13.03125 -21.21875 C 12.820312 -21.34375 12.71875 -21.457031 12.71875 -21.5625 Z M 12.71875 -21.984375"/></g></g></g><g fill-opacity="1" fill="#c49a29"><g transform="translate(249.795608, 120.579282)"><g><path d="M 18.65625 -1.015625 C 18.914062 -0.929688 19.085938 -0.847656 19.171875 -0.765625 C 19.253906 -0.679688 19.296875 -0.554688 19.296875 -0.390625 L 19.296875 0 L 12.296875 0 L 12.296875 -0.390625 C 12.296875 -0.554688 12.335938 -0.679688 12.421875 -0.765625 C 12.515625 -0.847656 12.675781 -0.929688 12.90625 -1.015625 L 13.765625 -1.15625 L 11.890625 -8.75 L 5.078125 -6.578125 L 3.609375 -1.1875 L 4.5625 -1.015625 C 4.863281 -0.890625 5.015625 -0.679688 5.015625 -0.390625 L 5.015625 0 L -0.03125 0 L -0.03125 -0.390625 C -0.03125 -0.679688 0.117188 -0.890625 0.421875 -1.015625 L 1.34375 -1.25 L 7.609375 -22.59375 C 7.609375 -22.59375 7.773438 -22.570312 8.109375 -22.53125 C 8.453125 -22.488281 8.878906 -22.410156 9.390625 -22.296875 C 9.898438 -22.191406 10.421875 -22.03125 10.953125 -21.8125 C 11.492188 -21.601562 11.972656 -21.328125 12.390625 -20.984375 C 12.816406 -20.648438 13.109375 -20.226562 13.265625 -19.71875 C 13.492188 -18.820312 13.757812 -17.75 14.0625 -16.5 C 14.375 -15.257812 14.703125 -13.945312 15.046875 -12.5625 C 15.390625 -11.175781 15.71875 -9.8125 16.03125 -8.46875 C 16.351562 -7.125 16.632812 -5.90625 16.875 -4.8125 C 17.125 -3.726562 17.320312 -2.859375 17.46875 -2.203125 C 17.625 -1.546875 17.703125 -1.21875 17.703125 -1.21875 Z M 5.59375 -8.40625 L 11.3125 -11.0625 L 8.921875 -20.578125 Z M 5.59375 -8.40625"/></g></g></g><path stroke-miterlimit="4" stroke-opacity="1" stroke-width="3.483023" stroke="#000000" d="M 9.011685 42.674289 C 9.011685 42.674289 9.321371 42.536186 9.932373 42.255795 C 10.551745 41.975403 11.313406 41.510874 12.208985 40.862207 C 13.108748 40.21354 14.016882 39.322146 14.933386 38.196395 C 15.845704 37.062274 16.615735 35.647762 17.235107 33.944488 C 17.854479 32.2454 18.164165 30.219885 18.164165 27.867944 C 18.164165 26.097711 17.883774 24.490691 17.322991 23.038514 C 16.766393 21.577968 16.034027 20.318298 15.134263 19.251137 C 14.242869 18.17979 13.263592 17.35954 12.18806 16.790387 C 11.120898 16.21705 10.066291 15.928288 9.011685 15.928288 C 9.011685 17.041484 9.011685 18.472736 9.011685 20.22623 C 9.011685 21.971353 9.011685 23.854579 9.011685 25.871724 C 9.011685 27.884684 9.011685 29.880904 9.011685 31.860384 C 9.011685 33.839865 9.011685 35.643577 9.011685 37.267337 C 9.011685 38.891097 9.011685 40.200985 9.011685 41.188633 C 9.011685 42.180465 9.011685 42.674289 9.011685 42.674289 Z M 14.669734 12.299939 C 14.669734 12.299939 15.00453 12.442227 15.669936 12.722618 C 16.335343 12.998825 17.155593 13.471724 18.130686 14.137131 C 19.109964 14.802537 20.089241 15.710671 21.064334 16.857347 C 22.039427 17.999837 22.859677 19.447829 23.525083 21.201322 C 24.19049 22.946446 24.525286 25.047289 24.525286 27.495484 C 24.525286 29.663287 24.060757 31.793425 23.127513 33.877529 C 22.198455 35.961633 20.938786 37.84486 19.344321 39.523024 C 17.745671 41.192818 15.958698 42.523631 13.979218 43.515464 C 11.999737 44.503111 9.953298 45.00112 7.844084 45.00112 C 7.844084 45.00112 7.618097 45.00112 7.166123 45.00112 C 6.718333 45.00112 6.16592 45.00112 5.500513 45.00112 C 4.835107 45.00112 4.1697 45.00112 3.504293 45.00112 C 2.838887 45.00112 2.278104 45.00112 1.826129 45.00112 C 1.37834 45.00112 1.156538 45.00112 1.156538 45.00112 L 1.156538 44.444522 C 1.156538 44.193425 1.215127 44.009288 1.33649 43.887924 C 1.466224 43.762376 1.717321 43.636827 2.085596 43.515464 L 3.345265 43.276922 L 3.345265 14.907161 L 2.504091 14.907161 C 1.675471 14.907161 1.256976 14.643509 1.256976 14.116206 L 1.256976 13.467539 L 9.011685 12.212055 L 9.011685 14.250124 Z M 53.966393 43.561498 C 54.334669 43.682862 54.573211 43.80004 54.677834 43.913034 C 54.795013 44.017658 54.849417 44.210165 54.849417 44.490557 L 54.849417 45.047155 L 46.948236 45.047155 L 46.948236 37.710941 L 38.862917 45.930179 C 38.862917 45.930179 38.65367 45.850665 38.23936 45.691637 C 37.82505 45.540978 37.306116 45.273142 36.686744 44.888127 C 36.067372 44.503111 35.448 43.959068 34.828627 43.264367 C 34.209255 42.561296 33.690321 41.669902 33.271827 40.590185 C 32.857517 39.510469 32.648269 38.179655 32.648269 36.597745 L 32.648269 14.99923 L 31.673177 14.99923 C 30.836187 14.99923 30.417692 14.735578 30.417692 14.208275 L 30.417692 13.559608 L 38.306319 12.258089 L 38.306319 35.204158 L 38.352353 35.204158 C 38.352353 36.714924 38.590895 37.773715 39.067979 38.380533 C 39.549248 38.983165 40.164436 39.271927 40.905171 39.238447 C 41.654277 39.209153 42.436862 39.00409 43.252927 38.61489 C 44.073177 38.229875 44.818098 37.79464 45.483504 37.300816 C 46.148911 36.802808 46.63855 36.396868 46.948236 36.087182 L 46.948236 14.99923 L 45.973143 14.99923 C 45.140339 14.99923 44.726029 14.735578 44.726029 14.208275 L 44.726029 13.559608 L 52.614655 12.258089 L 52.614655 43.276922 Z M 78.155391 13.049044 L 85.261433 13.049044 L 85.261433 13.651677 C 85.261433 13.810705 85.09822 13.982288 84.775979 14.17061 C 84.449553 14.354748 84.131497 14.517961 83.821811 14.660249 C 83.512124 14.794167 83.357281 14.865312 83.357281 14.865312 L 83.357281 45.00112 L 77.268182 44.955086 L 66.316174 18.389038 L 66.316174 43.138818 L 66.63423 43.184853 L 67.981783 43.515464 C 68.450497 43.703786 68.684855 44.013473 68.684855 44.444522 L 68.684855 45.00112 L 60.737639 45.00112 L 60.737639 44.444522 C 60.737639 44.013473 60.988736 43.703786 61.486744 43.515464 L 62.972401 43.184853 L 63.06447 43.138818 L 63.06447 14.865312 L 61.666697 14.534701 C 61.298422 14.442632 61.047325 14.338008 60.921776 14.216645 C 60.800413 14.091096 60.737639 13.898589 60.737639 13.651677 L 60.737639 13.049044 L 70.024038 13.049044 L 80.059543 38.912021 L 80.059543 14.907161 L 79.967474 14.865312 C 79.967474 14.865312 79.821 14.794167 79.523869 14.660249 C 79.230923 14.517961 78.929607 14.354748 78.61992 14.17061 C 78.310234 13.982288 78.155391 13.810705 78.155391 13.651677 Z M 117.301392 39.476989 C 117.301392 39.476989 117.075405 39.795045 116.623431 40.431157 C 116.175642 41.067269 115.48931 41.79545 114.560252 42.619885 C 113.635378 43.43595 112.484518 44.151576 111.0993 44.775133 C 109.726637 45.386135 108.107062 45.691637 106.248945 45.691637 C 104.206691 45.691637 102.281615 45.252217 100.465348 44.377563 C 98.65745 43.490354 97.071355 42.280904 95.702877 40.749213 C 94.342769 39.213337 93.275607 37.426365 92.497207 35.38411 C 91.722992 33.346041 91.337977 31.165683 91.337977 28.843037 C 91.337977 26.98492 91.664403 25.210502 92.31307 23.523968 C 92.965921 21.83325 93.823836 20.289004 94.886812 18.899601 C 95.962344 17.510198 97.155054 16.296564 98.469128 15.258697 C 99.787386 14.216645 101.114015 13.413135 102.461568 12.843982 C 103.813306 12.270644 105.07716 11.986067 106.248945 11.986067 C 107.91874 11.986067 109.596904 12.337603 111.283438 13.049044 C 112.974157 13.760485 114.564437 14.844387 116.045908 16.304934 L 109.262108 22.201525 C 109.262108 22.201525 109.211889 21.946243 109.107265 21.439864 C 108.998456 20.925116 108.743174 20.284819 108.333049 19.510604 C 107.935479 18.732203 107.299367 17.945433 106.428898 17.141923 C 105.566799 16.334228 104.378274 15.647897 102.859138 15.091299 C 102.70848 15.250327 102.344389 15.622787 101.771051 16.212865 C 101.193529 16.794572 100.561602 17.560418 99.8669 18.502031 C 99.168014 19.447829 98.540272 20.523361 97.983674 21.732811 C 97.422891 22.942261 97.05043 24.268889 96.862108 25.712696 C 96.67797 27.152318 96.836998 28.654714 97.335007 30.228255 C 97.89579 31.965008 98.774629 33.555288 99.979894 34.999095 C 101.189344 36.434532 102.515972 37.685832 103.968149 38.752993 C 105.428696 39.820155 106.843208 40.669699 108.220056 41.305811 C 109.605274 41.937738 110.743579 42.335309 111.634973 42.494337 C 111.634973 41.81219 111.634973 40.954276 111.634973 39.920594 C 111.634973 38.878542 111.634973 37.78627 111.634973 36.64378 C 111.634973 35.497104 111.634973 34.417387 111.634973 33.413 C 111.634973 32.408612 111.634973 31.579993 111.634973 30.931326 C 111.634973 30.278474 111.634973 29.922754 111.634973 29.864164 L 108.856168 29.864164 C 107.956404 29.864164 107.508615 29.613067 107.508615 29.115059 L 107.508615 28.424542 L 117.347427 26.938886 Z M 131.747832 42.912831 C 133.668723 42.912831 135.346887 42.64918 136.782324 42.121876 C 138.226131 41.590388 139.414656 40.979385 140.352085 40.284684 C 141.297883 39.589983 142.009324 38.97898 142.486408 38.460047 C 142.967677 37.928559 143.210404 37.664907 143.210404 37.664907 L 143.16437 45.00112 L 123.846651 45.00112 L 123.846651 44.444522 C 123.846651 44.193425 123.90524 44.009288 124.026604 43.887924 C 124.156337 43.762376 124.403249 43.636827 124.775709 43.515464 L 126.077228 43.230887 L 126.077228 14.865312 L 124.775709 14.580735 C 124.403249 14.488666 124.156337 14.384043 124.026604 14.262679 C 123.90524 14.132946 123.846651 13.932068 123.846651 13.651677 L 123.846651 13.095079 L 143.16437 13.095079 L 143.210404 19.138143 C 143.210404 19.138143 142.967677 18.945636 142.486408 18.56062 C 142.009324 18.167235 141.297883 17.711076 140.352085 17.187958 C 139.414656 16.660654 138.226131 16.196125 136.782324 15.79437 C 135.346887 15.384245 133.668723 15.183368 131.747832 15.183368 L 131.747832 28.278069 L 140.942162 26.938886 L 140.942162 30.692784 L 131.747832 30.692784 Z M 164.620597 11.986067 C 166.700516 11.986067 168.642331 12.425487 170.450229 13.308511 C 172.262311 14.18735 173.848406 15.392615 175.208514 16.928491 C 176.568622 18.460182 177.635784 20.251339 178.405815 22.289409 C 179.184215 24.331663 179.573415 26.516206 179.573415 28.843037 C 179.573415 31.165683 179.117256 33.346041 178.204937 35.38411 C 177.288433 37.426365 176.087353 39.221707 174.597512 40.770138 C 173.116041 42.318569 171.500651 43.528019 169.747158 44.398488 C 167.997849 45.260587 166.290391 45.691637 164.620597 45.691637 C 162.578342 45.691637 160.653266 45.260587 158.836999 44.398488 C 157.033286 43.528019 155.443006 42.318569 154.074528 40.770138 C 152.71442 39.221707 151.647259 37.426365 150.868858 35.38411 C 150.094643 33.346041 149.709628 31.165683 149.709628 28.843037 C 149.709628 26.98492 150.036054 25.210502 150.684721 23.523968 C 151.337573 21.83325 152.195487 20.289004 153.258464 18.899601 C 154.333995 17.510198 155.526705 16.296564 156.840779 15.258697 C 158.159037 14.216645 159.489851 13.413135 160.833219 12.843982 C 162.184957 12.270644 163.448811 11.986067 164.620597 11.986067 Z M 168.567002 42.20976 C 168.755325 42.000513 169.119415 41.598758 169.655089 41.00868 C 170.199132 40.418602 170.78921 39.669497 171.421137 38.752993 C 172.057249 37.83649 172.630587 36.794438 173.136965 35.622652 C 173.647529 34.442497 173.973955 33.157718 174.112058 31.768315 C 174.254346 30.370543 174.078579 28.901626 173.58894 27.357381 C 172.998862 25.557853 172.216277 24.009422 171.241184 22.707904 C 170.266091 21.41057 169.211484 20.309929 168.077363 19.410165 C 166.951613 18.510401 165.867711 17.794775 164.825659 17.254917 C 163.787792 16.710873 162.900583 16.300749 162.159847 16.020357 C 161.419112 15.739966 160.954582 15.572568 160.76626 15.509793 C 160.615602 15.668821 160.268251 16.037097 159.724208 16.610435 C 159.180165 17.175403 158.590087 17.911953 157.953975 18.807532 C 157.317863 19.707296 156.736155 20.749348 156.208852 21.925318 C 155.685733 23.097104 155.355122 24.398622 155.208649 25.82569 C 155.074731 27.248572 155.242129 28.750968 155.710843 30.328693 C 156.267441 32.090556 157.024916 33.622247 157.9749 34.919581 C 158.937438 36.2211 159.97949 37.321741 161.105241 38.221505 C 162.239361 39.121269 163.331633 39.84945 164.382055 40.410233 C 165.440846 40.958461 166.34898 41.376955 167.102271 41.657347 C 167.868116 41.933554 168.35357 42.121876 168.567002 42.20976 Z M 202.979828 13.049044 L 210.085869 13.049044 L 210.085869 13.651677 C 210.085869 13.810705 209.922656 13.982288 209.600415 14.17061 C 209.273989 14.354748 208.955933 14.517961 208.646247 14.660249 C 208.336561 14.794167 208.181718 14.865312 208.181718 14.865312 L 208.181718 45.00112 L 202.092619 44.955086 L 191.140611 18.389038 L 191.140611 43.138818 L 191.458667 43.184853 L 192.80622 43.515464 C 193.274934 43.703786 193.509291 44.013473 193.509291 44.444522 L 193.509291 45.00112 L 185.562075 45.00112 L 185.562075 44.444522 C 185.562075 44.013473 185.813172 43.703786 186.311181 43.515464 L 187.796837 43.184853 L 187.888906 43.138818 L 187.888906 14.865312 L 186.491134 14.534701 C 186.122858 14.442632 185.871761 14.338008 185.746213 14.216645 C 185.624849 14.091096 185.562075 13.898589 185.562075 13.651677 L 185.562075 13.049044 L 194.848474 13.049044 L 204.883979 38.912021 L 204.883979 14.907161 L 204.79191 14.865312 C 204.79191 14.865312 204.645437 14.794167 204.348306 14.660249 C 204.055359 14.517961 203.754043 14.354748 203.444357 14.17061 C 203.134671 13.982288 202.979828 13.810705 202.979828 13.651677 Z M 202.979828 13.049044" stroke-linejoin="miter" fill="none" transform="matrix(0.933405, 0, 0, 0.933405, 168.377513, 43.612929)" stroke-linecap="butt"/><g fill-opacity="1" fill="#c49a29"><g transform="translate(168.377513, 85.616142)"><g><path d="M 8.40625 -2.171875 C 8.40625 -2.171875 8.691406 -2.300781 9.265625 -2.5625 C 9.847656 -2.820312 10.554688 -3.253906 11.390625 -3.859375 C 12.234375 -4.460938 13.082031 -5.289062 13.9375 -6.34375 C 14.789062 -7.40625 15.503906 -8.726562 16.078125 -10.3125 C 16.660156 -11.90625 16.953125 -13.800781 16.953125 -16 C 16.953125 -17.644531 16.691406 -19.144531 16.171875 -20.5 C 15.648438 -21.851562 14.96875 -23.03125 14.125 -24.03125 C 13.289062 -25.03125 12.375 -25.796875 11.375 -26.328125 C 10.375 -26.867188 9.382812 -27.140625 8.40625 -27.140625 C 8.40625 -26.097656 8.40625 -24.757812 8.40625 -23.125 C 8.40625 -21.488281 8.40625 -19.734375 8.40625 -17.859375 C 8.40625 -15.984375 8.40625 -14.117188 8.40625 -12.265625 C 8.40625 -10.421875 8.40625 -8.738281 8.40625 -7.21875 C 8.40625 -5.695312 8.40625 -4.472656 8.40625 -3.546875 C 8.40625 -2.628906 8.40625 -2.171875 8.40625 -2.171875 Z M 13.703125 -30.515625 C 13.703125 -30.515625 14.007812 -30.382812 14.625 -30.125 C 15.25 -29.863281 16.015625 -29.421875 16.921875 -28.796875 C 17.835938 -28.179688 18.75 -27.335938 19.65625 -26.265625 C 20.5625 -25.191406 21.328125 -23.835938 21.953125 -22.203125 C 22.578125 -20.578125 22.890625 -18.625 22.890625 -16.34375 C 22.890625 -14.320312 22.453125 -12.332031 21.578125 -10.375 C 20.710938 -8.425781 19.535156 -6.671875 18.046875 -5.109375 C 16.566406 -3.554688 14.898438 -2.316406 13.046875 -1.390625 C 11.191406 -0.460938 9.285156 0 7.328125 0 C 7.328125 0 7.113281 0 6.6875 0 C 6.269531 0 5.75 0 5.125 0 C 4.507812 0 3.890625 0 3.265625 0 C 2.648438 0 2.128906 0 1.703125 0 C 1.285156 0 1.078125 0 1.078125 0 L 1.078125 -0.515625 C 1.078125 -0.742188 1.132812 -0.914062 1.25 -1.03125 C 1.375 -1.15625 1.609375 -1.273438 1.953125 -1.390625 L 3.125 -1.609375 L 3.125 -28.09375 L 2.34375 -28.09375 C 1.5625 -28.09375 1.171875 -28.335938 1.171875 -28.828125 L 1.171875 -29.4375 L 8.40625 -30.59375 L 8.40625 -28.6875 Z M 13.703125 -30.515625"/></g></g></g><g fill-opacity="1" fill="#c49a29"><g transform="translate(195.858439, 85.616142)"><g><path d="M 22.890625 -1.34375 C 23.234375 -1.226562 23.453125 -1.117188 23.546875 -1.015625 C 23.648438 -0.910156 23.703125 -0.734375 23.703125 -0.484375 L 23.703125 0.046875 L 16.34375 0.046875 L 16.34375 -6.8125 L 8.796875 0.859375 C 8.796875 0.859375 8.597656 0.785156 8.203125 0.640625 C 7.816406 0.503906 7.332031 0.253906 6.75 -0.109375 C 6.175781 -0.472656 5.597656 -0.976562 5.015625 -1.625 C 4.441406 -2.269531 3.957031 -3.097656 3.5625 -4.109375 C 3.175781 -5.128906 2.984375 -6.375 2.984375 -7.84375 L 2.984375 -28 L 2.078125 -28 C 1.296875 -28 0.90625 -28.242188 0.90625 -28.734375 L 0.90625 -29.34375 L 8.28125 -30.5625 L 8.28125 -9.140625 L 8.328125 -9.140625 C 8.328125 -7.722656 8.550781 -6.734375 9 -6.171875 C 9.445312 -5.609375 10.015625 -5.34375 10.703125 -5.375 C 11.398438 -5.40625 12.128906 -5.597656 12.890625 -5.953125 C 13.660156 -6.316406 14.351562 -6.726562 14.96875 -7.1875 C 15.59375 -7.65625 16.050781 -8.035156 16.34375 -8.328125 L 16.34375 -28 L 15.4375 -28 C 14.65625 -28 14.265625 -28.242188 14.265625 -28.734375 L 14.265625 -29.34375 L 21.625 -30.5625 L 21.625 -1.609375 Z M 22.890625 -1.34375"/></g></g></g><g fill-opacity="1" fill="#c49a29"><g transform="translate(224.076236, 85.616142)"><g><path d="M 17.25 -29.828125 L 23.875 -29.828125 L 23.875 -29.25 C 23.875 -29.113281 23.722656 -28.957031 23.421875 -28.78125 C 23.117188 -28.601562 22.820312 -28.445312 22.53125 -28.3125 C 22.25 -28.1875 22.109375 -28.125 22.109375 -28.125 L 22.109375 0 L 16.421875 -0.046875 L 6.203125 -24.84375 L 6.203125 -1.734375 L 6.5 -1.6875 L 7.765625 -1.390625 C 8.191406 -1.210938 8.40625 -0.921875 8.40625 -0.515625 L 8.40625 0 L 1 0 L 1 -0.515625 C 1 -0.921875 1.226562 -1.210938 1.6875 -1.390625 L 3.078125 -1.6875 L 3.171875 -1.734375 L 3.171875 -28.125 L 1.859375 -28.4375 C 1.515625 -28.519531 1.285156 -28.617188 1.171875 -28.734375 C 1.054688 -28.847656 1 -29.019531 1 -29.25 L 1 -29.828125 L 9.671875 -29.828125 L 19.03125 -5.671875 L 19.03125 -28.09375 L 18.9375 -28.125 C 18.9375 -28.125 18.800781 -28.1875 18.53125 -28.3125 C 18.257812 -28.445312 17.976562 -28.601562 17.6875 -28.78125 C 17.394531 -28.957031 17.25 -29.113281 17.25 -29.25 Z M 17.25 -29.828125"/></g></g></g><g fill-opacity="1" fill="#c49a29"><g transform="translate(252.554102, 85.616142)"><g><path d="M 25.3125 -5.15625 C 25.3125 -5.15625 25.101562 -4.859375 24.6875 -4.265625 C 24.269531 -3.671875 23.625 -2.988281 22.75 -2.21875 C 21.882812 -1.457031 20.804688 -0.785156 19.515625 -0.203125 C 18.234375 0.367188 16.726562 0.65625 15 0.65625 C 13.09375 0.65625 11.289062 0.242188 9.59375 -0.578125 C 7.90625 -1.410156 6.425781 -2.539062 5.15625 -3.96875 C 3.882812 -5.394531 2.882812 -7.0625 2.15625 -8.96875 C 1.4375 -10.875 1.078125 -12.910156 1.078125 -15.078125 C 1.078125 -16.816406 1.378906 -18.472656 1.984375 -20.046875 C 2.597656 -21.617188 3.398438 -23.054688 4.390625 -24.359375 C 5.390625 -25.660156 6.503906 -26.796875 7.734375 -27.765625 C 8.960938 -28.734375 10.203125 -29.484375 11.453125 -30.015625 C 12.710938 -30.546875 13.894531 -30.8125 15 -30.8125 C 16.5625 -30.8125 18.128906 -30.476562 19.703125 -29.8125 C 21.273438 -29.15625 22.753906 -28.144531 24.140625 -26.78125 L 17.8125 -21.28125 C 17.8125 -21.28125 17.757812 -21.519531 17.65625 -22 C 17.5625 -22.476562 17.328125 -23.078125 16.953125 -23.796875 C 16.578125 -24.515625 15.984375 -25.25 15.171875 -26 C 14.359375 -26.757812 13.242188 -27.394531 11.828125 -27.90625 C 11.679688 -27.769531 11.34375 -27.425781 10.8125 -26.875 C 10.28125 -26.320312 9.6875 -25.601562 9.03125 -24.71875 C 8.382812 -23.84375 7.800781 -22.84375 7.28125 -21.71875 C 6.757812 -20.59375 6.410156 -19.359375 6.234375 -18.015625 C 6.066406 -16.671875 6.210938 -15.257812 6.671875 -13.78125 C 7.191406 -12.164062 8.015625 -10.6875 9.140625 -9.34375 C 10.273438 -8 11.519531 -6.828125 12.875 -5.828125 C 14.226562 -4.828125 15.546875 -4.03125 16.828125 -3.4375 C 18.117188 -2.851562 19.1875 -2.488281 20.03125 -2.34375 C 20.03125 -2.976562 20.03125 -3.78125 20.03125 -4.75 C 20.03125 -5.71875 20.03125 -6.734375 20.03125 -7.796875 C 20.03125 -8.867188 20.03125 -9.875 20.03125 -10.8125 C 20.03125 -11.75 20.03125 -12.519531 20.03125 -13.125 C 20.03125 -13.738281 20.03125 -14.070312 20.03125 -14.125 L 17.421875 -14.125 C 16.585938 -14.125 16.171875 -14.359375 16.171875 -14.828125 L 16.171875 -15.46875 L 25.359375 -16.859375 Z M 25.3125 -5.15625"/></g></g></g><g fill-opacity="1" fill="#c49a29"><g transform="translate(282.895801, 85.616142)"><g><path d="M 8.453125 -1.953125 C 10.242188 -1.953125 11.8125 -2.195312 13.15625 -2.6875 C 14.5 -3.175781 15.609375 -3.742188 16.484375 -4.390625 C 17.367188 -5.046875 18.035156 -5.617188 18.484375 -6.109375 C 18.929688 -6.597656 19.15625 -6.84375 19.15625 -6.84375 L 19.109375 0 L 1.078125 0 L 1.078125 -0.515625 C 1.078125 -0.742188 1.132812 -0.914062 1.25 -1.03125 C 1.375 -1.15625 1.609375 -1.273438 1.953125 -1.390625 L 3.171875 -1.640625 L 3.171875 -28.125 L 1.953125 -28.390625 C 1.609375 -28.472656 1.375 -28.570312 1.25 -28.6875 C 1.132812 -28.800781 1.078125 -28.988281 1.078125 -29.25 L 1.078125 -29.78125 L 19.109375 -29.78125 L 19.15625 -24.140625 C 19.15625 -24.140625 18.929688 -24.316406 18.484375 -24.671875 C 18.035156 -25.035156 17.367188 -25.460938 16.484375 -25.953125 C 15.609375 -26.453125 14.5 -26.890625 13.15625 -27.265625 C 11.8125 -27.640625 10.242188 -27.828125 8.453125 -27.828125 L 8.453125 -15.609375 L 17.03125 -16.859375 L 17.03125 -13.34375 L 8.453125 -13.34375 Z M 8.453125 -1.953125"/></g></g></g><g fill-opacity="1" fill="#c49a29"><g transform="translate(307.03916, 85.616142)"><g><path d="M 15 -30.8125 C 16.9375 -30.8125 18.75 -30.398438 20.4375 -29.578125 C 22.125 -28.753906 23.601562 -27.628906 24.875 -26.203125 C 26.144531 -24.773438 27.140625 -23.101562 27.859375 -21.1875 C 28.585938 -19.28125 28.953125 -17.242188 28.953125 -15.078125 C 28.953125 -12.910156 28.523438 -10.875 27.671875 -8.96875 C 26.816406 -7.0625 25.695312 -5.382812 24.3125 -3.9375 C 22.925781 -2.5 21.414062 -1.375 19.78125 -0.5625 C 18.15625 0.25 16.5625 0.65625 15 0.65625 C 13.09375 0.65625 11.289062 0.25 9.59375 -0.5625 C 7.90625 -1.375 6.425781 -2.5 5.15625 -3.9375 C 3.882812 -5.382812 2.882812 -7.0625 2.15625 -8.96875 C 1.4375 -10.875 1.078125 -12.910156 1.078125 -15.078125 C 1.078125 -16.816406 1.378906 -18.472656 1.984375 -20.046875 C 2.597656 -21.617188 3.398438 -23.054688 4.390625 -24.359375 C 5.390625 -25.660156 6.503906 -26.796875 7.734375 -27.765625 C 8.960938 -28.734375 10.203125 -29.484375 11.453125 -30.015625 C 12.710938 -30.546875 13.894531 -30.8125 15 -30.8125 Z M 18.6875 -2.59375 C 18.851562 -2.800781 19.1875 -3.175781 19.6875 -3.71875 C 20.195312 -4.269531 20.75 -4.972656 21.34375 -5.828125 C 21.9375 -6.679688 22.472656 -7.65625 22.953125 -8.75 C 23.429688 -9.851562 23.734375 -11.050781 23.859375 -12.34375 C 23.992188 -13.644531 23.828125 -15.019531 23.359375 -16.46875 C 22.804688 -18.144531 22.078125 -19.585938 21.171875 -20.796875 C 20.265625 -22.015625 19.28125 -23.039062 18.21875 -23.875 C 17.164062 -24.71875 16.15625 -25.390625 15.1875 -25.890625 C 14.21875 -26.398438 13.382812 -26.785156 12.6875 -27.046875 C 12 -27.304688 11.570312 -27.460938 11.40625 -27.515625 C 11.257812 -27.378906 10.929688 -27.039062 10.421875 -26.5 C 9.921875 -25.96875 9.375 -25.28125 8.78125 -24.4375 C 8.1875 -23.601562 7.644531 -22.632812 7.15625 -21.53125 C 6.664062 -20.4375 6.351562 -19.222656 6.21875 -17.890625 C 6.09375 -16.566406 6.242188 -15.171875 6.671875 -13.703125 C 7.191406 -12.046875 7.898438 -10.609375 8.796875 -9.390625 C 9.691406 -8.179688 10.664062 -7.160156 11.71875 -6.328125 C 12.78125 -5.492188 13.800781 -4.816406 14.78125 -4.296875 C 15.757812 -3.773438 16.601562 -3.382812 17.3125 -3.125 C 18.019531 -2.863281 18.476562 -2.6875 18.6875 -2.59375 Z M 18.6875 -2.59375"/></g></g></g><g fill-opacity="1" fill="#c49a29"><g transform="translate(340.588378, 85.616142)"><g><path d="M 17.25 -29.828125 L 23.875 -29.828125 L 23.875 -29.25 C 23.875 -29.113281 23.722656 -28.957031 23.421875 -28.78125 C 23.117188 -28.601562 22.820312 -28.445312 22.53125 -28.3125 C 22.25 -28.1875 22.109375 -28.125 22.109375 -28.125 L 22.109375 0 L 16.421875 -0.046875 L 6.203125 -24.84375 L 6.203125 -1.734375 L 6.5 -1.6875 L 7.765625 -1.390625 C 8.191406 -1.210938 8.40625 -0.921875 8.40625 -0.515625 L 8.40625 0 L 1 0 L 1 -0.515625 C 1 -0.921875 1.226562 -1.210938 1.6875 -1.390625 L 3.078125 -1.6875 L 3.171875 -1.734375 L 3.171875 -28.125 L 1.859375 -28.4375 C 1.515625 -28.519531 1.285156 -28.617188 1.171875 -28.734375 C 1.054688 -28.847656 1 -29.019531 1 -29.25 L 1 -29.828125 L 9.671875 -29.828125 L 19.03125 -5.671875 L 19.03125 -28.09375 L 18.9375 -28.125 C 18.9375 -28.125 18.800781 -28.1875 18.53125 -28.3125 C 18.257812 -28.445312 17.976562 -28.601562 17.6875 -28.78125 C 17.394531 -28.957031 17.25 -29.113281 17.25 -29.25 Z M 17.25 -29.828125"/></g></g></g><path stroke-miterlimit="4" stroke-opacity="1" stroke-width="2" stroke="#151f28" d="M 0.999541 0.999218 L 96.53355 0.999218" stroke-linejoin="miter" fill="none" transform="matrix(0.926699, -0.000000000000000575, 0.000000000000000575, 0.926699, 273.683101, 99.495901)" stroke-linecap="round"/></svg>